  0
SECTION
  2
HEADER
  9
$ACADVER
  1
AC1027
  9
$ACADMAINTVER
 70
105
  9
$DWGCODEPAGE
  3
ANSI_1252
  9
$LASTSAVEDBY
  1
ezdxf
  9
$REQUIREDVERSIONS
160
0
  9
$INSBASE
 10
0.0
 20
0.0
 30
0.0
  9
$EXTMIN
 10
1e+20
 20
1e+20
 30
1e+20
  9
$EXTMAX
 10
-1e+20
 20
-1e+20
 30
-1e+20
  9
$LIMMIN
 10
0.0
 20
0.0
  9
$LIMMAX
 10
420.0
 20
297.0
  9
$ORTHOMODE
 70
0
  9
$REGENMODE
 70
1
  9
$FILLMODE
 70
1
  9
$QTEXTMODE
 70
0
  9
$MIRRTEXT
 70
1
  9
$LTSCALE
 40
1.0
  9
$ATTMODE
 70
1
  9
$TEXTSIZE
 40
2.5
  9
$TRACEWID
 40
1.0
  9
$TEXTSTYLE
  7
Standard
  9
$CLAYER
  8
0
  9
$CELTYPE
  6
ByLayer
  9
$CECOLOR
 62
256
  9
$CELTSCALE
 40
1.0
  9
$DISPSILH
 70
0
  9
$DIMSCALE
 40
1.0
  9
$DIMASZ
 40
2.5
  9
$DIMEXO
 40
0.625
  9
$DIMDLI
 40
3.75
  9
$DIMRND
 40
0.0
  9
$DIMDLE
 40
0.0
  9
$DIMEXE
 40
1.25
  9
$DIMTP
 40
0.0
  9
$DIMTM
 40
0.0
  9
$DIMTXT
 40
2.5
  9
$DIMCEN
 40
2.5
  9
$DIMTSZ
 40
0.0
  9
$DIMTOL
 70
0
  9
$DIMLIM
 70
0
  9
$DIMTIH
 70
0
  9
$DIMTOH
 70
0
  9
$DIMSE1
 70
0
  9
$DIMSE2
 70
0
  9
$DIMTAD
 70
1
  9
$DIMZIN
 70
8
  9
$DIMBLK
  1

  9
$DIMASO
 70
1
  9
$DIMSHO
 70
1
  9
$DIMPOST
  1

  9
$DIMAPOST
  1

  9
$DIMALT
 70
0
  9
$DIMALTD
 70
3
  9
$DIMALTF
 40
0.03937007874
  9
$DIMLFAC
 40
1.0
  9
$DIMTOFL
 70
1
  9
$DIMTVP
 40
0.0
  9
$DIMTIX
 70
0
  9
$DIMSOXD
 70
0
  9
$DIMSAH
 70
0
  9
$DIMBLK1
  1

  9
$DIMBLK2
  1

  9
$DIMSTYLE
  2
ISO-25
  9
$DIMCLRD
 70
0
  9
$DIMCLRE
 70
0
  9
$DIMCLRT
 70
0
  9
$DIMTFAC
 40
1.0
  9
$DIMGAP
 40
0.625
  9
$DIMJUST
 70
0
  9
$DIMSD1
 70
0
  9
$DIMSD2
 70
0
  9
$DIMTOLJ
 70
0
  9
$DIMTZIN
 70
8
  9
$DIMALTZ
 70
0
  9
$DIMALTTZ
 70
0
  9
$DIMUPT
 70
0
  9
$DIMDEC
 70
2
  9
$DIMTDEC
 70
2
  9
$DIMALTU
 70
2
  9
$DIMALTTD
 70
3
  9
$DIMTXSTY
  7
Standard
  9
$DIMAUNIT
 70
0
  9
$DIMADEC
 70
0
  9
$DIMALTRND
 40
0.0
  9
$DIMAZIN
 70
0
  9
$DIMDSEP
 70
44
  9
$DIMATFIT
 70
3
  9
$DIMFRAC
 70
0
  9
$DIMLDRBLK
  1

  9
$DIMLUNIT
 70
2
  9
$DIMLWD
 70
-2
  9
$DIMLWE
 70
-2
  9
$DIMTMOVE
 70
0
  9
$DIMFXL
 40
1.0
  9
$DIMFXLON
 70
0
  9
$DIMJOGANG
 40
0.785398163397
  9
$DIMTFILL
 70
0
  9
$DIMTFILLCLR
 70
0
  9
$DIMARCSYM
 70
0
  9
$DIMLTYPE
  6

  9
$DIMLTEX1
  6

  9
$DIMLTEX2
  6

  9
$DIMTXTDIRECTION
 70
0
  9
$LUNITS
 70
2
  9
$LUPREC
 70
4
  9
$SKETCHINC
 40
1.0
  9
$FILLETRAD
 40
10.0
  9
$AUNITS
 70
0
  9
$AUPREC
 70
2
  9
$MENU
  1
.
  9
$ELEVATION
 40
0.0
  9
$PELEVATION
 40
0.0
  9
$THICKNESS
 40
0.0
  9
$LIMCHECK
 70
0
  9
$CHAMFERA
 40
0.0
  9
$CHAMFERB
 40
0.0
  9
$CHAMFERC
 40
0.0
  9
$CHAMFERD
 40
0.0
  9
$SKPOLY
 70
0
  9
$TDCREATE
 40
2460640.844212963
  9
$TDUCREATE
 40
2458532.153996898
  9
$TDUPDATE
 40
2460640.8442824073
  9
$TDUUPDATE
 40
2458532.1544311
  9
$TDINDWG
 40
0.0
  9
$TDUSRTIMER
 40
0.0
  9
$USRTIMER
 70
1
  9
$ANGBASE
 50
0.0
  9
$ANGDIR
 70
0
  9
$PDMODE
 70
0
  9
$PDSIZE
 40
0.0
  9
$PLINEWID
 40
0.0
  9
$SPLFRAME
 70
0
  9
$SPLINETYPE
 70
6
  9
$SPLINESEGS
 70
8
  9
$HANDSEED
  5
36E
  9
$SURFTAB1
 70
6
  9
$SURFTAB2
 70
6
  9
$SURFTYPE
 70
6
  9
$SURFU
 70
6
  9
$SURFV
 70
6
  9
$UCSBASE
  2

  9
$UCSNAME
  2

  9
$UCSORG
 10
0.0
 20
0.0
 30
0.0
  9
$UCSXDIR
 10
1.0
 20
0.0
 30
0.0
  9
$UCSYDIR
 10
0.0
 20
1.0
 30
0.0
  9
$UCSORTHOREF
  2

  9
$UCSORTHOVIEW
 70
0
  9
$UCSORGTOP
 10
0.0
 20
0.0
 30
0.0
  9
$UCSORGBOTTOM
 10
0.0
 20
0.0
 30
0.0
  9
$UCSORGLEFT
 10
0.0
 20
0.0
 30
0.0
  9
$UCSORGRIGHT
 10
0.0
 20
0.0
 30
0.0
  9
$UCSORGFRONT
 10
0.0
 20
0.0
 30
0.0
  9
$UCSORGBACK
 10
0.0
 20
0.0
 30
0.0
  9
$PUCSBASE
  2

  9
$PUCSNAME
  2

  9
$PUCSORG
 10
0.0
 20
0.0
 30
0.0
  9
$PUCSXDIR
 10
1.0
 20
0.0
 30
0.0
  9
$PUCSYDIR
 10
0.0
 20
1.0
 30
0.0
  9
$PUCSORTHOREF
  2

  9
$PUCSORTHOVIEW
 70
0
  9
$PUCSORGTOP
 10
0.0
 20
0.0
 30
0.0
  9
$PUCSORGBOTTOM
 10
0.0
 20
0.0
 30
0.0
  9
$PUCSORGLEFT
 10
0.0
 20
0.0
 30
0.0
  9
$PUCSORGRIGHT
 10
0.0
 20
0.0
 30
0.0
  9
$PUCSORGFRONT
 10
0.0
 20
0.0
 30
0.0
  9
$PUCSORGBACK
 10
0.0
 20
0.0
 30
0.0
  9
$USERI1
 70
0
  9
$USERI2
 70
0
  9
$USERI3
 70
0
  9
$USERI4
 70
0
  9
$USERI5
 70
0
  9
$USERR1
 40
0.0
  9
$USERR2
 40
0.0
  9
$USERR3
 40
0.0
  9
$USERR4
 40
0.0
  9
$USERR5
 40
0.0
  9
$WORLDVIEW
 70
1
  9
$SHADEDGE
 70
3
  9
$SHADEDIF
 70
70
  9
$TILEMODE
 70
1
  9
$MAXACTVP
 70
64
  9
$PINSBASE
 10
0.0
 20
0.0
 30
0.0
  9
$PLIMCHECK
 70
0
  9
$PEXTMIN
 10
1e+20
 20
1e+20
 30
1e+20
  9
$PEXTMAX
 10
-1e+20
 20
-1e+20
 30
-1e+20
  9
$PLIMMIN
 10
0.0
 20
0.0
  9
$PLIMMAX
 10
420.0
 20
297.0
  9
$UNITMODE
 70
0
  9
$VISRETAIN
 70
1
  9
$PLINEGEN
 70
0
  9
$PSLTSCALE
 70
1
  9
$TREEDEPTH
 70
3020
  9
$CMLSTYLE
  2
Standard
  9
$CMLJUST
 70
0
  9
$CMLSCALE
 40
20.0
  9
$PROXYGRAPHICS
 70
1
  9
$MEASUREMENT
 70
1
  9
$CELWEIGHT
370
-1
  9
$ENDCAPS
280
0
  9
$JOINSTYLE
280
0
  9
$LWDISPLAY
290
0
  9
$INSUNITS
 70
6
  9
$HYPERLINKBASE
  1

  9
$STYLESHEET
  1

  9
$XEDIT
290
1
  9
$CEPSNTYPE
380
0
  9
$PSTYLEMODE
290
1
  9
$FINGERPRINTGUID
  2
{D0FDDDE1-9155-4AE9-B7C2-099EE4ECDC33}
  9
$VERSIONGUID
  2
{9FB892BB-3848-4230-90FC-62B007310C75}
  9
$EXTNAMES
290
1
  9
$PSVPSCALE
 40
0.0
  9
$OLESTARTUP
290
0
  9
$SORTENTS
280
127
  9
$INDEXCTL
280
0
  9
$HIDETEXT
280
1
  9
$XCLIPFRAME
280
1
  9
$HALOGAP
280
0
  9
$OBSCOLOR
 70
257
  9
$OBSLTYPE
280
0
  9
$INTERSECTIONDISPLAY
280
0
  9
$INTERSECTIONCOLOR
 70
257
  9
$DIMASSOC
280
2
  9
$PROJECTNAME
  1

  9
$CAMERADISPLAY
290
0
  9
$LENSLENGTH
 40
50.0
  9
$CAMERAHEIGHT
 40
0.0
  9
$STEPSPERSEC
 40
24.0
  9
$STEPSIZE
 40
100.0
  9
$3DDWFPREC
 40
2.0
  9
$PSOLWIDTH
 40
0.005
  9
$PSOLHEIGHT
 40
0.08
  9
$LOFTANG1
 40
1.570796326795
  9
$LOFTANG2
 40
1.570796326795
  9
$LOFTMAG1
 40
0.0
  9
$LOFTMAG2
 40
0.0
  9
$LOFTPARAM
 70
7
  9
$LOFTNORMALS
280
1
  9
$LATITUDE
 40
37.795
  9
$LONGITUDE
 40
-122.394
  9
$NORTHDIRECTION
 40
0.0
  9
$TIMEZONE
 70
-8000
  9
$LIGHTGLYPHDISPLAY
280
1
  9
$TILEMODELIGHTSYNCH
280
1
  9
$CMATERIAL
347
20
  9
$SOLIDHIST
280
0
  9
$SHOWHIST
280
1
  9
$DWFFRAME
280
2
  9
$DGNFRAME
280
2
  9
$REALWORLDSCALE
290
1
  9
$INTERFERECOLOR
 62
256
  9
$CSHADOW
280
0
  9
$SHADOWPLANELOCATION
 40
0.0
  0
ENDSEC
  0
SECTION
  2
CLASSES
  0
CLASS
  1
ACDBDICTIONARYWDFLT
  2
AcDbDictionaryWithDefault
  3
ObjectDBX Classes
 90
0
 91
0
280
0
281
0
  0
CLASS
  1
SUN
  2
AcDbSun
  3
SCENEOE
 90
1153
 91
0
280
0
281
0
  0
CLASS
  1
VISUALSTYLE
  2
AcDbVisualStyle
  3
ObjectDBX Classes
 90
4095
 91
0
280
0
281
0
  0
CLASS
  1
MATERIAL
  2
AcDbMaterial
  3
ObjectDBX Classes
 90
1153
 91
0
280
0
281
0
  0
CLASS
  1
SCALE
  2
AcDbScale
  3
ObjectDBX Classes
 90
1153
 91
0
280
0
281
0
  0
CLASS
  1
TABLESTYLE
  2
AcDbTableStyle
  3
ObjectDBX Classes
 90
4095
 91
0
280
0
281
0
  0
CLASS
  1
MLEADERSTYLE
  2
AcDbMLeaderStyle
  3
ACDB_MLEADERSTYLE_CLASS
 90
4095
 91
0
280
0
281
0
  0
CLASS
  1
DICTIONARYVAR
  2
AcDbDictionaryVar
  3
ObjectDBX Classes
 90
0
 91
0
280
0
281
0
  0
CLASS
  1
CELLSTYLEMAP
  2
AcDbCellStyleMap
  3
ObjectDBX Classes
 90
1152
 91
0
280
0
281
0
  0
CLASS
  1
MENTALRAYRENDERSETTINGS
  2
AcDbMentalRayRenderSettings
  3
SCENEOE
 90
1024
 91
0
280
0
281
0
  0
CLASS
  1
ACDBDETAILVIEWSTYLE
  2
AcDbDetailViewStyle
  3
ObjectDBX Classes
 90
1025
 91
0
280
0
281
0
  0
CLASS
  1
ACDBSECTIONVIEWSTYLE
  2
AcDbSectionViewStyle
  3
ObjectDBX Classes
 90
1025
 91
0
280
0
281
0
  0
CLASS
  1
RASTERVARIABLES
  2
AcDbRasterVariables
  3
ISM
 90
0
 91
0
280
0
281
0
  0
CLASS
  1
LAYOUT
  2
AcDbLayout
  3
ObjectDBX Classes
 90
0
 91
0
280
0
281
0
  0
CLASS
  1
ACDBPLACEHOLDER
  2
AcDbPlaceHolder
  3
ObjectDBX Classes
 90
0
 91
0
280
0
281
0
  0
ENDSEC
  0
SECTION
  2
TABLES
  0
TABLE
  2
VPORT
  5
8
330
0
100
AcDbSymbolTable
 70
1
  0
VPORT
  5
23
330
8
100
AcDbSymbolTableRecord
100
AcDbViewportTableRecord
  2
*Active
 70
0
 10
0.0
 20
0.0
 11
1.0
 21
1.0
 12
0.0
 22
0.0
 13
0.0
 23
0.0
 14
0.5
 24
0.5
 15
0.5
 25
0.5
 16
0.0
 26
0.0
 36
1.0
 17
0.0
 27
0.0
 37
0.0
 40
1000.0
 41
1.34
 42
50.0
 43
0.0
 44
0.0
 50
0.0
 51
0.0
 71
0
 72
1000
 73
1
 74
3
 75
0
 76
0
 77
0
 78
0
281
0
 65
0
146
0.0
  0
ENDTAB
  0
TABLE
  2
LTYPE
  5
2
330
0
100
AcDbSymbolTable
 70
3
  0
LTYPE
  5
24
330
2
100
AcDbSymbolTableRecord
100
AcDbLinetypeTableRecord
  2
ByBlock
 70
0
  3

 72
65
 73
0
 40
0.0
  0
LTYPE
  5
25
330
2
100
AcDbSymbolTableRecord
100
AcDbLinetypeTableRecord
  2
ByLayer
 70
0
  3

 72
65
 73
0
 40
0.0
  0
LTYPE
  5
26
330
2
100
AcDbSymbolTableRecord
100
AcDbLinetypeTableRecord
  2
Continuous
 70
0
  3

 72
65
 73
0
 40
0.0
  0
ENDTAB
  0
TABLE
  2
LAYER
  5
1
330
0
100
AcDbSymbolTable
 70
2
  0
LAYER
  5
27
330
1
100
AcDbSymbolTableRecord
100
AcDbLayerTableRecord
  2
0
 70
0
 62
7
  6
Continuous
370
-3
390
13
347
21
  0
LAYER
  5
28
330
1
100
AcDbSymbolTableRecord
100
AcDbLayerTableRecord
  2
Defpoints
 70
0
 62
7
  6
Continuous
290
0
370
-3
390
13
347
21
  0
ENDTAB
  0
TABLE
  2
STYLE
  5
5
330
0
100
AcDbSymbolTable
 70
1
  0
STYLE
  5
29
330
5
100
AcDbSymbolTableRecord
100
AcDbTextStyleTableRecord
  2
Standard
 70
0
 40
0.0
 41
1.0
 50
0.0
 71
0
 42
2.5
  3
txt
  4

  0
ENDTAB
  0
TABLE
  2
VIEW
  5
7
330
0
100
AcDbSymbolTable
 70
0
  0
ENDTAB
  0
TABLE
  2
UCS
  5
6
330
0
100
AcDbSymbolTable
 70
0
  0
ENDTAB
  0
TABLE
  2
APPID
  5
3
330
0
100
AcDbSymbolTable
 70
3
  0
APPID
  5
2A
330
3
100
AcDbSymbolTableRecord
100
AcDbRegAppTableRecord
  2
ACAD
 70
0
  0
APPID
  5
36B
330
3
100
AcDbSymbolTableRecord
100
AcDbRegAppTableRecord
  2
HATCHBACKGROUNDCOLOR
 70
0
  0
APPID
  5
36C
330
3
100
AcDbSymbolTableRecord
100
AcDbRegAppTableRecord
  2
EZDXF
 70
0
  0
ENDTAB
  0
TABLE
  2
DIMSTYLE
  5
4
330
0
100
AcDbSymbolTable
 70
1
100
AcDbDimStyleTable
  0
DIMSTYLE
105
2B
330
4
100
AcDbSymbolTableRecord
100
AcDbDimStyleTableRecord
  2
Standard
 70
0
 40
1.0
 41
2.5
 42
0.625
 43
3.75
 44
1.25
 45
0.0
 46
0.0
 47
0.0
 48
0.0
 49
2.5
140
2.5
141
2.5
142
0.0
143
0.03937007874
144
1.0
145
0.0
146
1.0
147
0.625
148
0.0
 69
0
 70
0
 71
0
 72
0
 73
0
 74
0
 75
0
 76
0
 77
1
 78
8
 79
3
170
0
171
3
172
1
173
0
174
0
175
0
176
0
177
0
178
0
179
2
271
2
272
2
273
2
274
3
275
0
276
0
277
2
278
44
279
0
280
0
281
0
282
0
283
0
284
8
285
0
286
0
288
0
289
3
290
0
371
-2
372
-2
  0
ENDTAB
  0
TABLE
  2
BLOCK_RECORD
  5
9
330
0
100
AcDbSymbolTable
 70
8
  0
BLOCK_RECORD
  5
17
330
9
100
AcDbSymbolTableRecord
100
AcDbBlockTableRecord
  2
*Model_Space
340
1A
 70
0
280
1
281
0
  0
BLOCK_RECORD
  5
1B
330
9
100
AcDbSymbolTableRecord
100
AcDbBlockTableRecord
  2
*Paper_Space
340
1E
 70
0
280
1
281
0
  0
BLOCK_RECORD
  5
2F
330
9
100
AcDbSymbolTableRecord
100
AcDbBlockTableRecord
  2
arrow
340
0
 70
0
280
1
281
0
  0
BLOCK_RECORD
  5
33
330
9
100
AcDbSymbolTableRecord
100
AcDbBlockTableRecord
  2
tank
340
0
 70
0
280
1
281
0
  0
BLOCK_RECORD
  5
38
330
9
100
AcDbSymbolTableRecord
100
AcDbBlockTableRecord
  2
reservoir
340
0
 70
0
280
1
281
0
  0
BLOCK_RECORD
  5
3E
330
9
100
AcDbSymbolTableRecord
100
AcDbBlockTableRecord
  2
junction
340
0
 70
0
280
1
281
0
  0
BLOCK_RECORD
  5
42
330
9
100
AcDbSymbolTableRecord
100
AcDbBlockTableRecord
  2
valve
340
0
 70
0
280
1
281
0
  0
BLOCK_RECORD
  5
47
330
9
100
AcDbSymbolTableRecord
100
AcDbBlockTableRecord
  2
pump
340
0
 70
0
280
1
281
0
  0
ENDTAB
  0
ENDSEC
  0
SECTION
  2
BLOCKS
  0
BLOCK
  5
18
330
17
100
AcDbEntity
  8
0
100
AcDbBlockBegin
  2
*Model_Space
 70
0
 10
0.0
 20
0.0
 30
0.0
  3
*Model_Space
  1

  0
ENDBLK
  5
19
330
17
100
AcDbEntity
  8
0
100
AcDbBlockEnd
  0
BLOCK
  5
1C
330
1B
100
AcDbEntity
  8
0
100
AcDbBlockBegin
  2
*Paper_Space
 70
0
 10
0.0
 20
0.0
 30
0.0
  3
*Paper_Space
  1

  0
ENDBLK
  5
1D
330
1B
100
AcDbEntity
  8
0
100
AcDbBlockEnd
  0
BLOCK
  5
30
330
2F
100
AcDbEntity
  8
0
100
AcDbBlockBegin
  2
arrow
 70
0
 10
0.0
 20
0.0
 30
0.0
  3
arrow
  1

  0
HATCH
  5
32
330
2F
100
AcDbEntity
  8
0
 62
2
100
AcDbHatch
 10
0.0
 20
0.0
 30
0.0
210
0.0
220
0.0
230
1.0
  2
SOLID
 70
1
 71
0
 91
1
 92
3
 72
0
 73
1
 93
3
 10
0.0
 20
0.0
 10
30.0
 20
-50.0
 10
-30.0
 20
-50.0
 97
0
 75
0
 76
1
 98
0
  0
ENDBLK
  5
31
330
2F
100
AcDbEntity
  8
0
100
AcDbBlockEnd
  0
BLOCK
  5
34
330
33
100
AcDbEntity
  8
0
100
AcDbBlockBegin
  2
tank
 70
0
 10
0.0
 20
0.0
 30
0.0
  3
tank
  1

  0
HATCH
  5
36
330
33
100
AcDbEntity
  8
0
 62
7
100
AcDbHatch
 10
0.0
 20
0.0
 30
0.0
210
0.0
220
0.0
230
1.0
  2
SOLID
 70
1
 71
0
 91
1
 92
3
 72
0
 73
1
 93
4
 10
100.0
 20
0.0
 10
100.0
 20
100.0
 10
-100.0
 20
100.0
 10
-100.0
 20
0.0
 97
0
 75
0
 76
1
 98
0
  0
HATCH
  5
37
330
33
100
AcDbEntity
  8
0
 62
7
100
AcDbHatch
 10
0.0
 20
0.0
 30
0.0
210
0.0
220
0.0
230
1.0
  2
SOLID
 70
1
 71
0
 91
1
 92
3
 72
0
 73
1
 93
4
 10
50.0
 20
0.0
 10
50.0
 20
-100.0
 10
-50.0
 20
-100.0
 10
-50.0
 20
0.0
 97
0
 75
0
 76
1
 98
0
  0
ENDBLK
  5
35
330
33
100
AcDbEntity
  8
0
100
AcDbBlockEnd
  0
BLOCK
  5
39
330
38
100
AcDbEntity
  8
0
100
AcDbBlockBegin
  2
reservoir
 70
0
 10
0.0
 20
0.0
 30
0.0
  3
reservoir
  1

  0
HATCH
  5
3B
330
38
100
AcDbEntity
  8
0
 62
7
100
AcDbHatch
 10
0.0
 20
0.0
 30
0.0
210
0.0
220
0.0
230
1.0
  2
SOLID
 70
1
 71
0
 91
1
 92
3
 72
0
 73
1
 93
4
 10
100.0
 20
-50.0
 10
100.0
 20
50.0
 10
-100.0
 20
50.0
 10
-100.0
 20
-50.0
 97
0
 75
0
 76
1
 98
0
  0
HATCH
  5
3C
330
38
100
AcDbEntity
  8
0
 62
7
100
AcDbHatch
 10
0.0
 20
0.0
 30
0.0
210
0.0
220
0.0
230
1.0
  2
SOLID
 70
1
 71
0
 91
1
 92
3
 72
0
 73
1
 93
4
 10
100.0
 20
50.0
 10
100.0
 20
100.0
 10
85.0
 20
100.0
 10
85.0
 20
50.0
 97
0
 75
0
 76
1
 98
0
  0
HATCH
  5
3D
330
38
100
AcDbEntity
  8
0
 62
7
100
AcDbHatch
 10
0.0
 20
0.0
 30
0.0
210
0.0
220
0.0
230
1.0
  2
SOLID
 70
1
 71
0
 91
1
 92
3
 72
0
 73
1
 93
4
 10
-100.0
 20
50.0
 10
-100.0
 20
100.0
 10
-85.0
 20
100.0
 10
-85.0
 20
50.0
 97
0
 75
0
 76
1
 98
0
  0
ENDBLK
  5
3A
330
38
100
AcDbEntity
  8
0
100
AcDbBlockEnd
  0
BLOCK
  5
3F
330
3E
100
AcDbEntity
  8
0
100
AcDbBlockBegin
  2
junction
 70
0
 10
0.0
 20
0.0
 30
0.0
  3
junction
  1

  0
HATCH
  5
41
330
3E
100
AcDbEntity
  8
0
 62
7
100
AcDbHatch
 10
0.0
 20
0.0
 30
0.0
210
0.0
220
0.0
230
1.0
  2
SOLID
 70
1
 71
0
 91
1
 92
1
 93
1
 72
3
 10
0.0
 20
0.0
 11
0.0
 21
50.0
 40
1
 50
0.0
 51
360.0
 73
1
 97
0
 75
0
 76
1
 98
0
  0
ENDBLK
  5
40
330
3E
100
AcDbEntity
  8
0
100
AcDbBlockEnd
  0
BLOCK
  5
43
330
42
100
AcDbEntity
  8
0
100
AcDbBlockBegin
  2
valve
 70
0
 10
0.0
 20
0.0
 30
0.0
  3
valve
  1

  0
HATCH
  5
45
330
42
100
AcDbEntity
  8
0
 62
7
100
AcDbHatch
 10
0.0
 20
0.0
 30
0.0
210
0.0
220
0.0
230
1.0
  2
SOLID
 70
1
 71
0
 91
1
 92
3
 72
0
 73
1
 93
3
 10
0.0
 20
0.0
 10
50.0
 20
30.0
 10
50.0
 20
-30.0
 97
0
 75
0
 76
1
 98
0
  0
HATCH
  5
46
330
42
100
AcDbEntity
  8
0
 62
7
100
AcDbHatch
 10
0.0
 20
0.0
 30
0.0
210
0.0
220
0.0
230
1.0
  2
SOLID
 70
1
 71
0
 91
1
 92
3
 72
0
 73
1
 93
3
 10
0.0
 20
0.0
 10
-50.0
 20
30.0
 10
-50.0
 20
-30.0
 97
0
 75
0
 76
1
 98
0
  0
ENDBLK
  5
44
330
42
100
AcDbEntity
  8
0
100
AcDbBlockEnd
  0
BLOCK
  5
48
330
47
100
AcDbEntity
  8
0
100
AcDbBlockBegin
  2
pump
 70
0
 10
0.0
 20
0.0
 30
0.0
  3
pump
  1

  0
CIRCLE
  5
4A
330
47
100
AcDbEntity
  8
0
100
AcDbCircle
 10
0.0
 20
0.0
 30
0.0
 40
100.0
  0
TEXT
  5
4B
330
47
100
AcDbEntity
  8
0
100
AcDbText
 10
0.0
 20
0.0
 30
0.0
 40
100.0
  1
P
 72
1
 11
0.0
 21
0.0
 31
0.0
100
AcDbText
 73
2
  0
ENDBLK
  5
49
330
47
100
AcDbEntity
  8
0
100
AcDbBlockEnd
  0
ENDSEC
  0
SECTION
  2
ENTITIES
  0
INSERT
  5
4C
330
17
100
AcDbEntity
  8
0
100
AcDbBlockReference
  2
tank
 10
-2496.329
 20
4258.443
 30
0.0
 41
0.5
 42
0.5
  0
INSERT
  5
4E
330
17
100
AcDbEntity
  8
0
100
AcDbBlockReference
  2
tank
 10
4092.033
 20
8306.669
 30
0.0
 41
0.5
 42
0.5
  0
INSERT
  5
50
330
17
100
AcDbEntity
  8
0
100
AcDbBlockReference
  2
tank
 10
-1315.254
 20
7323.526
 30
0.0
 41
0.5
 42
0.5
  0
INSERT
  5
52
330
17
100
AcDbEntity
  8
0
100
AcDbBlockReference
  2
reservoir
 10
452.936
 20
8739.546
 30
0.0
 41
0.5
 42
0.5
  0
INSERT
  5
54
330
17
100
AcDbEntity
  8
0
100
AcDbBlockReference
  2
reservoir
 10
-603.576
 20
3941.221
 30
0.0
 41
0.5
 42
0.5
  0
INSERT
  5
56
330
17
100
AcDbEntity
  8
0
100
AcDbBlockReference
  2
reservoir
 10
-2024.338
 20
5323.771
 30
0.0
 41
0.5
 42
0.5
  0
INSERT
  5
58
330
17
100
AcDbEntity
  8
0
100
AcDbBlockReference
  2
reservoir
 10
-5929.068
 20
5240.725
 30
0.0
 41
0.5
 42
0.5
  0
INSERT
  5
5A
330
17
100
AcDbEntity
  8
0
100
AcDbBlockReference
  2
reservoir
 10
-5936.405
 20
8556.998
 30
0.0
 41
0.5
 42
0.5
  0
INSERT
  5
5C
330
17
100
AcDbEntity
  8
0
100
AcDbBlockReference
  2
junction
 10
-587.372
 20
7209.985
 30
0.0
 41
0.2
 42
0.2
  0
INSERT
  5
5E
330
17
100
AcDbEntity
  8
0
100
AcDbBlockReference
  2
junction
 10
2745.962
 20
4654.919
 30
0.0
 41
0.2
 42
0.2
  0
INSERT
  5
60
330
17
100
AcDbEntity
  8
0
100
AcDbBlockReference
  2
junction
 10
7430.25
 20
7298.091
 30
0.0
 41
0.2
 42
0.2
  0
INSERT
  5
62
330
17
100
AcDbEntity
  8
0
100
AcDbBlockReference
  2
junction
 10
1773.576
 20
8181.942
 30
0.0
 41
0.2
 42
0.2
  0
INSERT
  5
64
330
17
100
AcDbEntity
  8
0
100
AcDbBlockReference
  2
junction
 10
2213.789
 20
8174.605
 30
0.0
 41
0.2
 42
0.2
  0
INSERT
  5
66
330
17
100
AcDbEntity
  8
0
100
AcDbBlockReference
  2
junction
 10
-2643.231
 20
6809.944
 30
0.0
 41
0.2
 42
0.2
  0
INSERT
  5
68
330
17
100
AcDbEntity
  8
0
100
AcDbBlockReference
  2
junction
 10
-1564.708
 20
6839.292
 30
0.0
 41
0.2
 42
0.2
  0
INSERT
  5
6A
330
17
100
AcDbEntity
  8
0
100
AcDbBlockReference
  2
junction
 10
-2669.522
 20
5360.429
 30
0.0
 41
0.2
 42
0.2
  0
INSERT
  5
6C
330
17
100
AcDbEntity
  8
0
100
AcDbBlockReference
  2
junction
 10
-2691.517
 20
5463.072
 30
0.0
 41
0.2
 42
0.2
  0
INSERT
  5
6E
330
17
100
AcDbEntity
  8
0
100
AcDbBlockReference
  2
junction
 10
-4758.413
 20
7784.437
 30
0.0
 41
0.2
 42
0.2
  0
INSERT
  5
70
330
17
100
AcDbEntity
  8
0
100
AcDbBlockReference
  2
junction
 10
-5117.92
 20
7028.738
 30
0.0
 41
0.2
 42
0.2
  0
INSERT
  5
72
330
17
100
AcDbEntity
  8
0
100
AcDbBlockReference
  2
junction
 10
-5580.144
 20
6390.429
 30
0.0
 41
0.2
 42
0.2
  0
INSERT
  5
74
330
17
100
AcDbEntity
  8
0
100
AcDbBlockReference
  2
junction
 10
-4472.274
 20
6500.482
 30
0.0
 41
0.2
 42
0.2
  0
INSERT
  5
76
330
17
100
AcDbEntity
  8
0
100
AcDbBlockReference
  2
junction
 10
-4611.675
 20
5524.676
 30
0.0
 41
0.2
 42
0.2
  0
INSERT
  5
78
330
17
100
AcDbEntity
  8
0
100
AcDbBlockReference
  2
junction
 10
-4949.172
 20
5033.104
 30
0.0
 41
0.2
 42
0.2
  0
INSERT
  5
7A
330
17
100
AcDbEntity
  8
0
100
AcDbBlockReference
  2
junction
 10
-3141.05
 20
8703.736
 30
0.0
 41
0.2
 42
0.2
  0
INSERT
  5
7C
330
17
100
AcDbEntity
  8
0
100
AcDbBlockReference
  2
junction
 10
-3647.295
 20
8116.785
 30
0.0
 41
0.2
 42
0.2
  0
INSERT
  5
7E
330
17
100
AcDbEntity
  8
0
100
AcDbBlockReference
  2
junction
 10
-4065.498
 20
7221.684
 30
0.0
 41
0.2
 42
0.2
  0
INSERT
  5
80
330
17
100
AcDbEntity
  8
0
100
AcDbBlockReference
  2
junction
 10
-2579.357
 20
7454.277
 30
0.0
 41
0.2
 42
0.2
  0
INSERT
  5
82
330
17
100
AcDbEntity
  8
0
100
AcDbBlockReference
  2
junction
 10
-1464.15
 20
7901.828
 30
0.0
 41
0.2
 42
0.2
  0
INSERT
  5
84
330
17
100
AcDbEntity
  8
0
100
AcDbBlockReference
  2
junction
 10
-1104.643
 20
8371.388
 30
0.0
 41
0.2
 42
0.2
  0
INSERT
  5
86
330
17
100
AcDbEntity
  8
0
100
AcDbBlockReference
  2
junction
 10
-1813.073
 20
8945.853
 30
0.0
 41
0.2
 42
0.2
  0
INSERT
  5
88
330
17
100
AcDbEntity
  8
0
100
AcDbBlockReference
  2
junction
 10
-4579.08
 20
8821.126
 30
0.0
 41
0.2
 42
0.2
  0
INSERT
  5
8A
330
17
100
AcDbEntity
  8
0
100
AcDbBlockReference
  2
junction
 10
-4046.735
 20
5788.804
 30
0.0
 41
0.2
 42
0.2
  0
INSERT
  5
8C
330
17
100
AcDbEntity
  8
0
100
AcDbBlockReference
  2
junction
 10
-3731.249
 20
5972.226
 30
0.0
 41
0.2
 42
0.2
  0
INSERT
  5
8E
330
17
100
AcDbEntity
  8
0
100
AcDbBlockReference
  2
junction
 10
-3379.078
 20
6236.354
 30
0.0
 41
0.2
 42
0.2
  0
INSERT
  5
90
330
17
100
AcDbEntity
  8
0
100
AcDbBlockReference
  2
junction
 10
-3892.66
 20
4548.87
 30
0.0
 41
0.2
 42
0.2
  0
INSERT
  5
92
330
17
100
AcDbEntity
  8
0
100
AcDbBlockReference
  2
junction
 10
-3467.121
 20
4835.008
 30
0.0
 41
0.2
 42
0.2
  0
INSERT
  5
94
330
17
100
AcDbEntity
  8
0
100
AcDbBlockReference
  2
junction
 10
-2784.79
 20
4849.682
 30
0.0
 41
0.2
 42
0.2
  0
INSERT
  5
96
330
17
100
AcDbEntity
  8
0
100
AcDbBlockReference
  2
junction
 10
-1933.711
 20
5121.147
 30
0.0
 41
0.2
 42
0.2
  0
INSERT
  5
98
330
17
100
AcDbEntity
  8
0
100
AcDbBlockReference
  2
pump
 10
1993.6825000000001
 20
8178.273499999999
 30
0.0
 41
0.5
 42
0.5
  0
INSERT
  5
9A
330
17
100
AcDbEntity
  8
0
100
AcDbBlockReference
  2
pump
 10
-2680.5195
 20
5411.7505
 30
0.0
 41
0.5
 42
0.5
  0
POLYLINE
  5
9C
330
17
100
AcDbEntity
  8
0
100
AcDb2dPolyline
 66
1
 10
0.0
 20
0.0
 30
0.0
 70
0
  0
VERTEX
  5
9E
330
17
100
AcDbEntity
  8
0
100
AcDbVertex
100
AcDb2dVertex
 10
2745.962
 20
4654.919
 30
0.0
 70
0
  0
VERTEX
  5
9F
330
17
100
AcDbEntity
  8
0
100
AcDbVertex
100
AcDb2dVertex
 10
452.936
 20
8739.546
 30
0.0
 70
0
  0
SEQEND
  5
9D
330
9C
100
AcDbEntity
  8
0
  0
POLYLINE
  5
A0
330
17
100
AcDbEntity
  8
0
100
AcDb2dPolyline
 66
1
 10
0.0
 20
0.0
 30
0.0
 70
0
  0
VERTEX
  5
A2
330
17
100
AcDbEntity
  8
0
100
AcDbVertex
100
AcDb2dVertex
 10
7430.25
 20
7298.091
 30
0.0
 70
0
  0
VERTEX
  5
A3
330
17
100
AcDbEntity
  8
0
100
AcDbVertex
100
AcDb2dVertex
 10
-2496.329
 20
4258.443
 30
0.0
 70
0
  0
SEQEND
  5
A1
330
A0
100
AcDbEntity
  8
0
  0
POLYLINE
  5
A4
330
17
100
AcDbEntity
  8
0
100
AcDb2dPolyline
 66
1
 10
0.0
 20
0.0
 30
0.0
 70
0
  0
VERTEX
  5
A6
330
17
100
AcDbEntity
  8
0
100
AcDbVertex
100
AcDb2dVertex
 10
-603.576
 20
3941.221
 30
0.0
 70
0
  0
VERTEX
  5
A7
330
17
100
AcDbEntity
  8
0
100
AcDbVertex
100
AcDb2dVertex
 10
-587.372
 20
7209.985
 30
0.0
 70
0
  0
SEQEND
  5
A5
330
A4
100
AcDbEntity
  8
0
  0
POLYLINE
  5
A8
330
17
100
AcDbEntity
  8
0
100
AcDb2dPolyline
 66
1
 10
0.0
 20
0.0
 30
0.0
 70
0
  0
VERTEX
  5
AA
330
17
100
AcDbEntity
  8
0
100
AcDbVertex
100
AcDb2dVertex
 10
-587.372
 20
7209.985
 30
0.0
 70
0
  0
VERTEX
  5
AB
330
17
100
AcDbEntity
  8
0
100
AcDbVertex
100
AcDb2dVertex
 10
455.213
 20
6842.878
 30
0.0
 70
0
  0
SEQEND
  5
A9
330
A8
100
AcDbEntity
  8
0
  0
POLYLINE
  5
AC
330
17
100
AcDbEntity
  8
0
100
AcDb2dPolyline
 66
1
 10
0.0
 20
0.0
 30
0.0
 70
0
  0
VERTEX
  5
AE
330
17
100
AcDbEntity
  8
0
100
AcDbVertex
100
AcDb2dVertex
 10
455.213
 20
6842.878
 30
0.0
 70
0
  0
VERTEX
  5
AF
330
17
100
AcDbEntity
  8
0
100
AcDbVertex
100
AcDb2dVertex
 10
-58.737
 20
5873.715
 30
0.0
 70
0
  0
SEQEND
  5
AD
330
AC
100
AcDbEntity
  8
0
  0
POLYLINE
  5
B0
330
17
100
AcDbEntity
  8
0
100
AcDb2dPolyline
 66
1
 10
0.0
 20
0.0
 30
0.0
 70
0
  0
VERTEX
  5
B2
330
17
100
AcDbEntity
  8
0
100
AcDbVertex
100
AcDb2dVertex
 10
-58.737
 20
5873.715
 30
0.0
 70
0
  0
VERTEX
  5
B3
330
17
100
AcDbEntity
  8
0
100
AcDbVertex
100
AcDb2dVertex
 10
1527.166
 20
5741.557
 30
0.0
 70
0
  0
SEQEND
  5
B1
330
B0
100
AcDbEntity
  8
0
  0
POLYLINE
  5
B4
330
17
100
AcDbEntity
  8
0
100
AcDb2dPolyline
 66
1
 10
0.0
 20
0.0
 30
0.0
 70
0
  0
VERTEX
  5
B6
330
17
100
AcDbEntity
  8
0
100
AcDbVertex
100
AcDb2dVertex
 10
1527.166
 20
5741.557
 30
0.0
 70
0
  0
VERTEX
  5
B7
330
17
100
AcDbEntity
  8
0
100
AcDbVertex
100
AcDb2dVertex
 10
528.634
 20
4038.179
 30
0.0
 70
0
  0
SEQEND
  5
B5
330
B4
100
AcDbEntity
  8
0
  0
POLYLINE
  5
B8
330
17
100
AcDbEntity
  8
0
100
AcDb2dPolyline
 66
1
 10
0.0
 20
0.0
 30
0.0
 70
0
  0
VERTEX
  5
BA
330
17
100
AcDbEntity
  8
0
100
AcDbVertex
100
AcDb2dVertex
 10
528.634
 20
4038.179
 30
0.0
 70
0
  0
VERTEX
  5
BB
330
17
100
AcDbEntity
  8
0
100
AcDbVertex
100
AcDb2dVertex
 10
1644.64
 20
3671.072
 30
0.0
 70
0
  0
SEQEND
  5
B9
330
B8
100
AcDbEntity
  8
0
  0
POLYLINE
  5
BC
330
17
100
AcDbEntity
  8
0
100
AcDb2dPolyline
 66
1
 10
0.0
 20
0.0
 30
0.0
 70
0
  0
VERTEX
  5
BE
330
17
100
AcDbEntity
  8
0
100
AcDbVertex
100
AcDb2dVertex
 10
1644.64
 20
3671.072
 30
0.0
 70
0
  0
VERTEX
  5
BF
330
17
100
AcDbEntity
  8
0
100
AcDbVertex
100
AcDb2dVertex
 10
4375.918
 20
4008.811
 30
0.0
 70
0
  0
SEQEND
  5
BD
330
BC
100
AcDbEntity
  8
0
  0
POLYLINE
  5
C0
330
17
100
AcDbEntity
  8
0
100
AcDb2dPolyline
 66
1
 10
0.0
 20
0.0
 30
0.0
 70
0
  0
VERTEX
  5
C2
330
17
100
AcDbEntity
  8
0
100
AcDbVertex
100
AcDb2dVertex
 10
4375.918
 20
4008.811
 30
0.0
 70
0
  0
VERTEX
  5
C3
330
17
100
AcDbEntity
  8
0
100
AcDbVertex
100
AcDb2dVertex
 10
2745.962
 20
4654.919
 30
0.0
 70
0
  0
SEQEND
  5
C1
330
C0
100
AcDbEntity
  8
0
  0
POLYLINE
  5
C4
330
17
100
AcDbEntity
  8
0
100
AcDb2dPolyline
 66
1
 10
0.0
 20
0.0
 30
0.0
 70
0
  0
VERTEX
  5
C6
330
17
100
AcDbEntity
  8
0
100
AcDbVertex
100
AcDb2dVertex
 10
1773.576
 20
8181.942
 30
0.0
 70
0
  0
VERTEX
  5
C7
330
17
100
AcDbEntity
  8
0
100
AcDbVertex
100
AcDb2dVertex
 10
452.936
 20
8739.546
 30
0.0
 70
0
  0
SEQEND
  5
C5
330
C4
100
AcDbEntity
  8
0
  0
POLYLINE
  5
C8
330
17
100
AcDbEntity
  8
0
100
AcDb2dPolyline
 66
1
 10
0.0
 20
0.0
 30
0.0
 70
0
  0
VERTEX
  5
CA
330
17
100
AcDbEntity
  8
0
100
AcDbVertex
100
AcDb2dVertex
 10
4092.033
 20
8306.669
 30
0.0
 70
0
  0
VERTEX
  5
CB
330
17
100
AcDbEntity
  8
0
100
AcDbVertex
100
AcDb2dVertex
 10
2213.789
 20
8174.605
 30
0.0
 70
0
  0
SEQEND
  5
C9
330
C8
100
AcDbEntity
  8
0
  0
POLYLINE
  5
CC
330
17
100
AcDbEntity
  8
0
100
AcDb2dPolyline
 66
1
 10
0.0
 20
0.0
 30
0.0
 70
0
  0
VERTEX
  5
CE
330
17
100
AcDbEntity
  8
0
100
AcDbVertex
100
AcDb2dVertex
 10
-2643.231
 20
6809.944
 30
0.0
 70
0
  0
VERTEX
  5
CF
330
17
100
AcDbEntity
  8
0
100
AcDbVertex
100
AcDb2dVertex
 10
-2283.723
 20
7103.42
 30
0.0
 70
0
  0
SEQEND
  5
CD
330
CC
100
AcDbEntity
  8
0
  0
POLYLINE
  5
D0
330
17
100
AcDbEntity
  8
0
100
AcDb2dPolyline
 66
1
 10
0.0
 20
0.0
 30
0.0
 70
0
  0
VERTEX
  5
D2
330
17
100
AcDbEntity
  8
0
100
AcDbVertex
100
AcDb2dVertex
 10
-2283.723
 20
7103.42
 30
0.0
 70
0
  0
VERTEX
  5
D3
330
17
100
AcDbEntity
  8
0
100
AcDbVertex
100
AcDb2dVertex
 10
-1858.184
 20
6501.795
 30
0.0
 70
0
  0
SEQEND
  5
D1
330
D0
100
AcDbEntity
  8
0
  0
POLYLINE
  5
D4
330
17
100
AcDbEntity
  8
0
100
AcDb2dPolyline
 66
1
 10
0.0
 20
0.0
 30
0.0
 70
0
  0
VERTEX
  5
D6
330
17
100
AcDbEntity
  8
0
100
AcDbVertex
100
AcDb2dVertex
 10
-1858.184
 20
6501.795
 30
0.0
 70
0
  0
VERTEX
  5
D7
330
17
100
AcDbEntity
  8
0
100
AcDbVertex
100
AcDb2dVertex
 10
-1564.708
 20
6839.292
 30
0.0
 70
0
  0
SEQEND
  5
D5
330
D4
100
AcDbEntity
  8
0
  0
POLYLINE
  5
D8
330
17
100
AcDbEntity
  8
0
100
AcDb2dPolyline
 66
1
 10
0.0
 20
0.0
 30
0.0
 70
0
  0
VERTEX
  5
DA
330
17
100
AcDbEntity
  8
0
100
AcDbVertex
100
AcDb2dVertex
 10
-1315.254
 20
7323.526
 30
0.0
 70
0
  0
VERTEX
  5
DB
330
17
100
AcDbEntity
  8
0
100
AcDbVertex
100
AcDb2dVertex
 10
-1564.708
 20
6839.292
 30
0.0
 70
0
  0
SEQEND
  5
D9
330
D8
100
AcDbEntity
  8
0
  0
POLYLINE
  5
DC
330
17
100
AcDbEntity
  8
0
100
AcDb2dPolyline
 66
1
 10
0.0
 20
0.0
 30
0.0
 70
0
  0
VERTEX
  5
DE
330
17
100
AcDbEntity
  8
0
100
AcDbVertex
100
AcDb2dVertex
 10
-2691.517
 20
5463.072
 30
0.0
 70
0
  0
VERTEX
  5
DF
330
17
100
AcDbEntity
  8
0
100
AcDbVertex
100
AcDb2dVertex
 10
-2357.092
 20
6134.95
 30
0.0
 70
0
  0
SEQEND
  5
DD
330
DC
100
AcDbEntity
  8
0
  0
POLYLINE
  5
E0
330
17
100
AcDbEntity
  8
0
100
AcDb2dPolyline
 66
1
 10
0.0
 20
0.0
 30
0.0
 70
0
  0
VERTEX
  5
E2
330
17
100
AcDbEntity
  8
0
100
AcDbVertex
100
AcDb2dVertex
 10
-2357.092
 20
6134.95
 30
0.0
 70
0
  0
VERTEX
  5
E3
330
17
100
AcDbEntity
  8
0
100
AcDbVertex
100
AcDb2dVertex
 10
-2944.043
 20
6421.089
 30
0.0
 70
0
  0
SEQEND
  5
E1
330
E0
100
AcDbEntity
  8
0
  0
POLYLINE
  5
E4
330
17
100
AcDbEntity
  8
0
100
AcDb2dPolyline
 66
1
 10
0.0
 20
0.0
 30
0.0
 70
0
  0
VERTEX
  5
E6
330
17
100
AcDbEntity
  8
0
100
AcDbVertex
100
AcDb2dVertex
 10
-2944.043
 20
6421.089
 30
0.0
 70
0
  0
VERTEX
  5
E7
330
17
100
AcDbEntity
  8
0
100
AcDbVertex
100
AcDb2dVertex
 10
-2349.755
 20
6567.827
 30
0.0
 70
0
  0
SEQEND
  5
E5
330
E4
100
AcDbEntity
  8
0
  0
POLYLINE
  5
E8
330
17
100
AcDbEntity
  8
0
100
AcDb2dPolyline
 66
1
 10
0.0
 20
0.0
 30
0.0
 70
0
  0
VERTEX
  5
EA
330
17
100
AcDbEntity
  8
0
100
AcDbVertex
100
AcDb2dVertex
 10
-2349.755
 20
6567.827
 30
0.0
 70
0
  0
VERTEX
  5
EB
330
17
100
AcDbEntity
  8
0
100
AcDbVertex
100
AcDb2dVertex
 10
-2643.231
 20
6809.944
 30
0.0
 70
0
  0
SEQEND
  5
E9
330
E8
100
AcDbEntity
  8
0
  0
POLYLINE
  5
EC
330
17
100
AcDbEntity
  8
0
100
AcDb2dPolyline
 66
1
 10
0.0
 20
0.0
 30
0.0
 70
0
  0
VERTEX
  5
EE
330
17
100
AcDbEntity
  8
0
100
AcDbVertex
100
AcDb2dVertex
 10
-2669.522
 20
5360.429
 30
0.0
 70
0
  0
VERTEX
  5
EF
330
17
100
AcDbEntity
  8
0
100
AcDbVertex
100
AcDb2dVertex
 10
-2024.338
 20
5323.771
 30
0.0
 70
0
  0
SEQEND
  5
ED
330
EC
100
AcDbEntity
  8
0
  0
POLYLINE
  5
F0
330
17
100
AcDbEntity
  8
0
100
AcDb2dPolyline
 66
1
 10
0.0
 20
0.0
 30
0.0
 70
0
  0
VERTEX
  5
F2
330
17
100
AcDbEntity
  8
0
100
AcDbVertex
100
AcDb2dVertex
 10
-4611.675
 20
5524.676
 30
0.0
 70
0
  0
VERTEX
  5
F3
330
17
100
AcDbEntity
  8
0
100
AcDbVertex
100
AcDb2dVertex
 10
-4949.172
 20
5033.104
 30
0.0
 70
0
  0
SEQEND
  5
F1
330
F0
100
AcDbEntity
  8
0
  0
POLYLINE
  5
F4
330
17
100
AcDbEntity
  8
0
100
AcDb2dPolyline
 66
1
 10
0.0
 20
0.0
 30
0.0
 70
0
  0
VERTEX
  5
F6
330
17
100
AcDbEntity
  8
0
100
AcDbVertex
100
AcDb2dVertex
 10
-5580.144
 20
6390.429
 30
0.0
 70
0
  0
VERTEX
  5
F7
330
17
100
AcDbEntity
  8
0
100
AcDbVertex
100
AcDb2dVertex
 10
-4611.675
 20
5524.676
 30
0.0
 70
0
  0
SEQEND
  5
F5
330
F4
100
AcDbEntity
  8
0
  0
POLYLINE
  5
F8
330
17
100
AcDbEntity
  8
0
100
AcDb2dPolyline
 66
1
 10
0.0
 20
0.0
 30
0.0
 70
0
  0
VERTEX
  5
FA
330
17
100
AcDbEntity
  8
0
100
AcDbVertex
100
AcDb2dVertex
 10
-4472.274
 20
6500.482
 30
0.0
 70
0
  0
VERTEX
  5
FB
330
17
100
AcDbEntity
  8
0
100
AcDbVertex
100
AcDb2dVertex
 10
-5580.144
 20
6390.429
 30
0.0
 70
0
  0
SEQEND
  5
F9
330
F8
100
AcDbEntity
  8
0
  0
POLYLINE
  5
FC
330
17
100
AcDbEntity
  8
0
100
AcDb2dPolyline
 66
1
 10
0.0
 20
0.0
 30
0.0
 70
0
  0
VERTEX
  5
FE
330
17
100
AcDbEntity
  8
0
100
AcDbVertex
100
AcDb2dVertex
 10
-5117.92
 20
7028.738
 30
0.0
 70
0
  0
VERTEX
  5
FF
330
17
100
AcDbEntity
  8
0
100
AcDbVertex
100
AcDb2dVertex
 10
-4472.274
 20
6500.482
 30
0.0
 70
0
  0
SEQEND
  5
FD
330
FC
100
AcDbEntity
  8
0
  0
POLYLINE
  5
100
330
17
100
AcDbEntity
  8
0
100
AcDb2dPolyline
 66
1
 10
0.0
 20
0.0
 30
0.0
 70
0
  0
VERTEX
  5
102
330
17
100
AcDbEntity
  8
0
100
AcDbVertex
100
AcDb2dVertex
 10
-5117.92
 20
7028.738
 30
0.0
 70
0
  0
VERTEX
  5
103
330
17
100
AcDbEntity
  8
0
100
AcDbVertex
100
AcDb2dVertex
 10
-4780.424
 20
7755.09
 30
0.0
 70
0
  0
SEQEND
  5
101
330
100
100
AcDbEntity
  8
0
  0
POLYLINE
  5
104
330
17
100
AcDbEntity
  8
0
100
AcDb2dPolyline
 66
1
 10
0.0
 20
0.0
 30
0.0
 70
0
  0
VERTEX
  5
106
330
17
100
AcDbEntity
  8
0
100
AcDbVertex
100
AcDb2dVertex
 10
-4780.424
 20
7755.09
 30
0.0
 70
0
  0
VERTEX
  5
107
330
17
100
AcDbEntity
  8
0
100
AcDbVertex
100
AcDb2dVertex
 10
-4758.413
 20
7784.437
 30
0.0
 70
0
  0
SEQEND
  5
105
330
104
100
AcDbEntity
  8
0
  0
POLYLINE
  5
108
330
17
100
AcDbEntity
  8
0
100
AcDb2dPolyline
 66
1
 10
0.0
 20
0.0
 30
0.0
 70
0
  0
VERTEX
  5
10A
330
17
100
AcDbEntity
  8
0
100
AcDbVertex
100
AcDb2dVertex
 10
-4949.172
 20
5033.104
 30
0.0
 70
0
  0
VERTEX
  5
10B
330
17
100
AcDbEntity
  8
0
100
AcDbVertex
100
AcDb2dVertex
 10
-5929.068
 20
5240.725
 30
0.0
 70
0
  0
SEQEND
  5
109
330
108
100
AcDbEntity
  8
0
  0
POLYLINE
  5
10C
330
17
100
AcDbEntity
  8
0
100
AcDb2dPolyline
 66
1
 10
0.0
 20
0.0
 30
0.0
 70
0
  0
VERTEX
  5
10E
330
17
100
AcDbEntity
  8
0
100
AcDbVertex
100
AcDb2dVertex
 10
-3141.05
 20
8703.736
 30
0.0
 70
0
  0
VERTEX
  5
10F
330
17
100
AcDbEntity
  8
0
100
AcDbVertex
100
AcDb2dVertex
 10
-4579.08
 20
8821.126
 30
0.0
 70
0
  0
SEQEND
  5
10D
330
10C
100
AcDbEntity
  8
0
  0
POLYLINE
  5
110
330
17
100
AcDbEntity
  8
0
100
AcDb2dPolyline
 66
1
 10
0.0
 20
0.0
 30
0.0
 70
0
  0
VERTEX
  5
112
330
17
100
AcDbEntity
  8
0
100
AcDbVertex
100
AcDb2dVertex
 10
-2579.357
 20
7454.277
 30
0.0
 70
0
  0
VERTEX
  5
113
330
17
100
AcDbEntity
  8
0
100
AcDbVertex
100
AcDb2dVertex
 10
-3141.05
 20
8703.736
 30
0.0
 70
0
  0
SEQEND
  5
111
330
110
100
AcDbEntity
  8
0
  0
POLYLINE
  5
114
330
17
100
AcDbEntity
  8
0
100
AcDb2dPolyline
 66
1
 10
0.0
 20
0.0
 30
0.0
 70
0
  0
VERTEX
  5
116
330
17
100
AcDbEntity
  8
0
100
AcDbVertex
100
AcDb2dVertex
 10
-3647.295
 20
8116.785
 30
0.0
 70
0
  0
VERTEX
  5
117
330
17
100
AcDbEntity
  8
0
100
AcDbVertex
100
AcDb2dVertex
 10
-3141.05
 20
8703.736
 30
0.0
 70
0
  0
SEQEND
  5
115
330
114
100
AcDbEntity
  8
0
  0
POLYLINE
  5
118
330
17
100
AcDbEntity
  8
0
100
AcDb2dPolyline
 66
1
 10
0.0
 20
0.0
 30
0.0
 70
0
  0
VERTEX
  5
11A
330
17
100
AcDbEntity
  8
0
100
AcDbVertex
100
AcDb2dVertex
 10
-4065.498
 20
7221.684
 30
0.0
 70
0
  0
VERTEX
  5
11B
330
17
100
AcDbEntity
  8
0
100
AcDbVertex
100
AcDb2dVertex
 10
-3647.295
 20
8116.785
 30
0.0
 70
0
  0
SEQEND
  5
119
330
118
100
AcDbEntity
  8
0
  0
POLYLINE
  5
11C
330
17
100
AcDbEntity
  8
0
100
AcDb2dPolyline
 66
1
 10
0.0
 20
0.0
 30
0.0
 70
0
  0
VERTEX
  5
11E
330
17
100
AcDbEntity
  8
0
100
AcDbVertex
100
AcDb2dVertex
 10
-1813.073
 20
8945.853
 30
0.0
 70
0
  0
VERTEX
  5
11F
330
17
100
AcDbEntity
  8
0
100
AcDbVertex
100
AcDb2dVertex
 10
-3141.05
 20
8703.736
 30
0.0
 70
0
  0
SEQEND
  5
11D
330
11C
100
AcDbEntity
  8
0
  0
POLYLINE
  5
120
330
17
100
AcDbEntity
  8
0
100
AcDb2dPolyline
 66
1
 10
0.0
 20
0.0
 30
0.0
 70
0
  0
VERTEX
  5
122
330
17
100
AcDbEntity
  8
0
100
AcDbVertex
100
AcDb2dVertex
 10
-1464.15
 20
7901.828
 30
0.0
 70
0
  0
VERTEX
  5
123
330
17
100
AcDbEntity
  8
0
100
AcDbVertex
100
AcDb2dVertex
 10
-1104.643
 20
8371.388
 30
0.0
 70
0
  0
SEQEND
  5
121
330
120
100
AcDbEntity
  8
0
  0
POLYLINE
  5
124
330
17
100
AcDbEntity
  8
0
100
AcDb2dPolyline
 66
1
 10
0.0
 20
0.0
 30
0.0
 70
0
  0
VERTEX
  5
126
330
17
100
AcDbEntity
  8
0
100
AcDbVertex
100
AcDb2dVertex
 10
-4579.08
 20
8821.126
 30
0.0
 70
0
  0
VERTEX
  5
127
330
17
100
AcDbEntity
  8
0
100
AcDbVertex
100
AcDb2dVertex
 10
-5936.405
 20
8556.998
 30
0.0
 70
0
  0
SEQEND
  5
125
330
124
100
AcDbEntity
  8
0
  0
POLYLINE
  5
128
330
17
100
AcDbEntity
  8
0
100
AcDb2dPolyline
 66
1
 10
0.0
 20
0.0
 30
0.0
 70
0
  0
VERTEX
  5
12A
330
17
100
AcDbEntity
  8
0
100
AcDbVertex
100
AcDb2dVertex
 10
-4046.735
 20
5788.804
 30
0.0
 70
0
  0
VERTEX
  5
12B
330
17
100
AcDbEntity
  8
0
100
AcDbVertex
100
AcDb2dVertex
 10
-4472.274
 20
6500.482
 30
0.0
 70
0
  0
SEQEND
  5
129
330
128
100
AcDbEntity
  8
0
  0
POLYLINE
  5
12C
330
17
100
AcDbEntity
  8
0
100
AcDb2dPolyline
 66
1
 10
0.0
 20
0.0
 30
0.0
 70
0
  0
VERTEX
  5
12E
330
17
100
AcDbEntity
  8
0
100
AcDbVertex
100
AcDb2dVertex
 10
-3731.249
 20
5972.226
 30
0.0
 70
0
  0
VERTEX
  5
12F
330
17
100
AcDbEntity
  8
0
100
AcDbVertex
100
AcDb2dVertex
 10
-4046.735
 20
5788.804
 30
0.0
 70
0
  0
SEQEND
  5
12D
330
12C
100
AcDbEntity
  8
0
  0
POLYLINE
  5
130
330
17
100
AcDbEntity
  8
0
100
AcDb2dPolyline
 66
1
 10
0.0
 20
0.0
 30
0.0
 70
0
  0
VERTEX
  5
132
330
17
100
AcDbEntity
  8
0
100
AcDbVertex
100
AcDb2dVertex
 10
-3379.078
 20
6236.354
 30
0.0
 70
0
  0
VERTEX
  5
133
330
17
100
AcDbEntity
  8
0
100
AcDbVertex
100
AcDb2dVertex
 10
-4065.498
 20
7221.684
 30
0.0
 70
0
  0
SEQEND
  5
131
330
130
100
AcDbEntity
  8
0
  0
POLYLINE
  5
134
330
17
100
AcDbEntity
  8
0
100
AcDb2dPolyline
 66
1
 10
0.0
 20
0.0
 30
0.0
 70
0
  0
VERTEX
  5
136
330
17
100
AcDbEntity
  8
0
100
AcDbVertex
100
AcDb2dVertex
 10
-3379.078
 20
6236.354
 30
0.0
 70
0
  0
VERTEX
  5
137
330
17
100
AcDbEntity
  8
0
100
AcDbVertex
100
AcDb2dVertex
 10
-3731.249
 20
5972.226
 30
0.0
 70
0
  0
SEQEND
  5
135
330
134
100
AcDbEntity
  8
0
  0
POLYLINE
  5
138
330
17
100
AcDbEntity
  8
0
100
AcDb2dPolyline
 66
1
 10
0.0
 20
0.0
 30
0.0
 70
0
  0
VERTEX
  5
13A
330
17
100
AcDbEntity
  8
0
100
AcDbVertex
100
AcDb2dVertex
 10
-4611.675
 20
5524.676
 30
0.0
 70
0
  0
VERTEX
  5
13B
330
17
100
AcDbEntity
  8
0
100
AcDbVertex
100
AcDb2dVertex
 10
-3892.66
 20
4548.87
 30
0.0
 70
0
  0
SEQEND
  5
139
330
138
100
AcDbEntity
  8
0
  0
POLYLINE
  5
13C
330
17
100
AcDbEntity
  8
0
100
AcDb2dPolyline
 66
1
 10
0.0
 20
0.0
 30
0.0
 70
0
  0
VERTEX
  5
13E
330
17
100
AcDbEntity
  8
0
100
AcDbVertex
100
AcDb2dVertex
 10
-4046.735
 20
5788.804
 30
0.0
 70
0
  0
VERTEX
  5
13F
330
17
100
AcDbEntity
  8
0
100
AcDbVertex
100
AcDb2dVertex
 10
-3467.121
 20
4835.008
 30
0.0
 70
0
  0
SEQEND
  5
13D
330
13C
100
AcDbEntity
  8
0
  0
POLYLINE
  5
140
330
17
100
AcDbEntity
  8
0
100
AcDb2dPolyline
 66
1
 10
0.0
 20
0.0
 30
0.0
 70
0
  0
VERTEX
  5
142
330
17
100
AcDbEntity
  8
0
100
AcDbVertex
100
AcDb2dVertex
 10
-2784.79
 20
4849.682
 30
0.0
 70
0
  0
VERTEX
  5
143
330
17
100
AcDbEntity
  8
0
100
AcDbVertex
100
AcDb2dVertex
 10
-3731.249
 20
5972.226
 30
0.0
 70
0
  0
SEQEND
  5
141
330
140
100
AcDbEntity
  8
0
  0
POLYLINE
  5
144
330
17
100
AcDbEntity
  8
0
100
AcDb2dPolyline
 66
1
 10
0.0
 20
0.0
 30
0.0
 70
0
  0
VERTEX
  5
146
330
17
100
AcDbEntity
  8
0
100
AcDbVertex
100
AcDb2dVertex
 10
-1933.711
 20
5121.147
 30
0.0
 70
0
  0
VERTEX
  5
147
330
17
100
AcDbEntity
  8
0
100
AcDbVertex
100
AcDb2dVertex
 10
-2784.79
 20
4849.682
 30
0.0
 70
0
  0
SEQEND
  5
145
330
144
100
AcDbEntity
  8
0
  0
POLYLINE
  5
148
330
17
100
AcDbEntity
  8
0
100
AcDb2dPolyline
 66
1
 10
0.0
 20
0.0
 30
0.0
 70
0
  0
VERTEX
  5
14A
330
17
100
AcDbEntity
  8
0
100
AcDbVertex
100
AcDb2dVertex
 10
-1813.073
 20
8945.853
 30
0.0
 70
0
  0
VERTEX
  5
14B
330
17
100
AcDbEntity
  8
0
100
AcDbVertex
100
AcDb2dVertex
 10
-1176.035
 20
9116.945
 30
0.0
 70
0
  0
SEQEND
  5
149
330
148
100
AcDbEntity
  8
0
  0
POLYLINE
  5
14C
330
17
100
AcDbEntity
  8
0
100
AcDb2dPolyline
 66
1
 10
0.0
 20
0.0
 30
0.0
 70
0
  0
VERTEX
  5
14E
330
17
100
AcDbEntity
  8
0
100
AcDbVertex
100
AcDb2dVertex
 10
-1176.035
 20
9116.945
 30
0.0
 70
0
  0
VERTEX
  5
14F
330
17
100
AcDbEntity
  8
0
100
AcDbVertex
100
AcDb2dVertex
 10
-1104.643
 20
8371.388
 30
0.0
 70
0
  0
SEQEND
  5
14D
330
14C
100
AcDbEntity
  8
0
  0
TEXT
  5
150
330
17
100
AcDbEntity
  8
0
100
AcDbText
 10
1599.449
 20
6697.2325
 30
0.0
 40
25.0
  1
100-1313
 50
-60.691037424331434
 72
1
 11
1599.449
 21
6697.2325
 31
0.0
100
AcDbText
 73
1
  0
TEXT
  5
151
330
17
100
AcDbEntity
  8
0
100
AcDbText
 10
1599.449
 20
6697.2325
 30
0.0
 40
25.0
  1
257.53 (0.38) <---
 50
-60.691037424331434
 72
1
 11
1599.449
 21
6697.2325
 31
0.0
100
AcDbText
 73
3
  0
TEXT
  5
152
330
17
100
AcDbEntity
  8
0
100
AcDbText
 10
2466.9605
 20
5778.267
 30
0.0
 40
25.0
  1
200-342
 50
17.02527160196368
 72
1
 11
2466.9605
 21
5778.267
 31
0.0
100
AcDbText
 73
1
  0
TEXT
  5
153
330
17
100
AcDbEntity
  8
0
100
AcDbText
 10
2466.9605
 20
5778.267
 30
0.0
 40
25.0
  1
30.0 (0.01) --->
 50
17.02527160196368
 72
1
 11
2466.9605
 21
5778.267
 31
0.0
100
AcDbText
 73
3
  0
TEXT
  5
154
330
17
100
AcDbEntity
  8
0
100
AcDbText
 10
-595.4739999999999
 20
5575.603
 30
0.0
 40
25.0
  1
100-374
 50
89.71597423175493
 72
1
 11
-595.4739999999999
 21
5575.603
 31
0.0
100
AcDbText
 73
1
  0
TEXT
  5
155
330
17
100
AcDbEntity
  8
0
100
AcDbText
 10
-595.4739999999999
 20
5575.603
 30
0.0
 40
25.0
  1
297.53 (0.44) <---
 50
89.71597423175493
 72
1
 11
-595.4739999999999
 21
5575.603
 31
0.0
100
AcDbText
 73
3
  0
TEXT
  5
156
330
17
100
AcDbEntity
  8
0
100
AcDbText
 10
1027.9
 20
4889.868
 30
0.0
 40
25.0
  1
200-535
 50
59.62087226215327
 72
1
 11
1027.9
 21
4889.868
 31
0.0
100
AcDbText
 73
1
  0
TEXT
  5
157
330
17
100
AcDbEntity
  8
0
100
AcDbText
 10
1027.9
 20
4889.868
 30
0.0
 40
25.0
  1
277.53 (0.10) --->
 50
59.62087226215327
 72
1
 11
1027.9
 21
4889.868
 31
0.0
100
AcDbText
 73
3
  0
TEXT
  5
158
330
17
100
AcDbEntity
  8
0
100
AcDbText
 10
1113.256
 20
8460.744
 30
0.0
 40
25.0
  1
12-324
 50
-22.89056802102953
 72
1
 11
1113.256
 21
8460.744
 31
0.0
100
AcDbText
 73
1
  0
TEXT
  5
159
330
17
100
AcDbEntity
  8
0
100
AcDbText
 10
1113.256
 20
8460.744
 30
0.0
 40
25.0
  1
6.4 (0.65) --->
 50
-22.89056802102953
 72
1
 11
1113.256
 21
8460.744
 31
0.0
100
AcDbText
 73
3
  0
TEXT
  5
15A
330
17
100
AcDbEntity
  8
0
100
AcDbText
 10
3152.911
 20
8240.636999999999
 30
0.0
 40
25.0
  1
12-342
 50
4.021989228429452
 72
1
 11
3152.911
 21
8240.636999999999
 31
0.0
100
AcDbText
 73
1
  0
TEXT
  5
15B
330
17
100
AcDbEntity
  8
0
100
AcDbText
 10
3152.911
 20
8240.636999999999
 30
0.0
 40
25.0
  1
6.4 (0.65) --->
 50
4.021989228429452
 72
1
 11
3152.911
 21
8240.636999999999
 31
0.0
100
AcDbText
 73
3
  0
TEXT
  5
15C
330
17
100
AcDbEntity
  8
0
100
AcDbText
 10
-2070.9535
 20
6802.6075
 30
0.0
 40
25.0
  1
12-424
 50
-54.727618805406586
 72
1
 11
-2070.9535
 21
6802.6075
 31
0.0
100
AcDbText
 73
1
  0
TEXT
  5
15D
330
17
100
AcDbEntity
  8
0
100
AcDbText
 10
-2070.9535
 20
6802.6075
 30
0.0
 40
25.0
  1
3.67 (0.38) <---
 50
-54.727618805406586
 72
1
 11
-2070.9535
 21
6802.6075
 31
0.0
100
AcDbText
 73
3
  0
TEXT
  5
15E
330
17
100
AcDbEntity
  8
0
100
AcDbText
 10
-1439.981
 20
7081.409
 30
0.0
 40
25.0
  1
12-263
 50
62.74466029082687
 72
1
 11
-1439.981
 21
7081.409
 31
0.0
100
AcDbText
 73
1
  0
TEXT
  5
15F
330
17
100
AcDbEntity
  8
0
100
AcDbText
 10
-1439.981
 20
7081.409
 30
0.0
 40
25.0
  1
23.67 (2.42) <---
 50
62.74466029082687
 72
1
 11
-1439.981
 21
7081.409
 31
0.0
100
AcDbText
 73
3
  0
TEXT
  5
160
330
17
100
AcDbEntity
  8
0
100
AcDbText
 10
-2650.5675
 20
6278.0195
 30
0.0
 40
25.0
  1
12-225
 50
-25.989264146576744
 72
1
 11
-2650.5675
 21
6278.0195
 31
0.0
100
AcDbText
 73
1
  0
TEXT
  5
161
330
17
100
AcDbEntity
  8
0
100
AcDbText
 10
-2650.5675
 20
6278.0195
 30
0.0
 40
25.0
  1
16.33 (1.67) --->
 50
-25.989264146576744
 72
1
 11
-2650.5675
 21
6278.0195
 31
0.0
100
AcDbText
 73
3
  0
TEXT
  5
162
330
17
100
AcDbEntity
  8
0
100
AcDbText
 10
-2346.93
 20
5342.1
 30
0.0
 40
25.0
  1
12-356
 50
-3.2519295058974365
 72
1
 11
-2346.93
 21
5342.1
 31
0.0
100
AcDbText
 73
1
  0
TEXT
  5
163
330
17
100
AcDbEntity
  8
0
100
AcDbText
 10
-2346.93
 20
5342.1
 30
0.0
 40
25.0
  1
16.33 (1.67) --->
 50
-3.2519295058974365
 72
1
 11
-2346.93
 21
5342.1
 31
0.0
100
AcDbText
 73
3
  0
TEXT
  5
164
330
17
100
AcDbEntity
  8
0
100
AcDbText
 10
-4780.4235
 20
5278.89
 30
0.0
 40
25.0
  1
12-327
 50
55.52780149021279
 72
1
 11
-4780.4235
 21
5278.89
 31
0.0
100
AcDbText
 73
1
  0
TEXT
  5
165
330
17
100
AcDbEntity
  8
0
100
AcDbText
 10
-4780.4235
 20
5278.89
 30
0.0
 40
25.0
  1
47.27 (4.84) --->
 50
55.52780149021279
 72
1
 11
-4780.4235
 21
5278.89
 31
0.0
100
AcDbText
 73
3
  0
TEXT
  5
166
330
17
100
AcDbEntity
  8
0
100
AcDbText
 10
-5095.9095
 20
5957.5525
 30
0.0
 40
25.0
  1
12-3689
 50
-41.794797521228446
 72
1
 11
-5095.9095
 21
5957.5525
 31
0.0
100
AcDbText
 73
1
  0
TEXT
  5
167
330
17
100
AcDbEntity
  8
0
100
AcDbText
 10
-5095.9095
 20
5957.5525
 30
0.0
 40
25.0
  1
45.27 (4.63) --->
 50
-41.794797521228446
 72
1
 11
-5095.9095
 21
5957.5525
 31
0.0
100
AcDbText
 73
3
  0
TEXT
  5
168
330
17
100
AcDbEntity
  8
0
100
AcDbText
 10
-5026.209000000001
 20
6445.4555
 30
0.0
 40
25.0
  1
12-458
 50
5.673006199858148
 72
1
 11
-5026.209000000001
 21
6445.4555
 31
0.0
100
AcDbText
 73
1
  0
TEXT
  5
169
330
17
100
AcDbEntity
  8
0
100
AcDbText
 10
-5026.209000000001
 20
6445.4555
 30
0.0
 40
25.0
  1
43.27 (4.43) --->
 50
5.673006199858148
 72
1
 11
-5026.209000000001
 21
6445.4555
 31
0.0
100
AcDbText
 73
3
  0
TEXT
  5
16A
330
17
100
AcDbEntity
  8
0
100
AcDbText
 10
-4795.097
 20
6764.610000000001
 30
0.0
 40
25.0
  1
12-428
 50
-39.28941652744609
 72
1
 11
-4795.097
 21
6764.610000000001
 31
0.0
100
AcDbText
 73
1
  0
TEXT
  5
16B
330
17
100
AcDbEntity
  8
0
100
AcDbText
 10
-4795.097
 20
6764.610000000001
 30
0.0
 40
25.0
  1
4.0 (0.41) --->
 50
-39.28941652744609
 72
1
 11
-4795.097
 21
6764.610000000001
 31
0.0
100
AcDbText
 73
3
  0
TEXT
  5
16C
330
17
100
AcDbEntity
  8
0
100
AcDbText
 10
-4949.1720000000005
 20
7391.914000000001
 30
0.0
 40
25.0
  1
12-74
 50
65.07828714431751
 72
1
 11
-4949.1720000000005
 21
7391.914000000001
 31
0.0
100
AcDbText
 73
1
  0
TEXT
  5
16D
330
17
100
AcDbEntity
  8
0
100
AcDbText
 10
-4949.1720000000005
 20
7391.914000000001
 30
0.0
 40
25.0
  1
2.0 (0.20) --->
 50
65.07828714431751
 72
1
 11
-4949.1720000000005
 21
7391.914000000001
 31
0.0
100
AcDbText
 73
3
  0
TEXT
  5
16E
330
17
100
AcDbEntity
  8
0
100
AcDbText
 10
-5439.12
 20
5136.914500000001
 30
0.0
 40
25.0
  1
12-462
 50
-11.96294200377288
 72
1
 11
-5439.12
 21
5136.914500000001
 31
0.0
100
AcDbText
 73
1
  0
TEXT
  5
16F
330
17
100
AcDbEntity
  8
0
100
AcDbText
 10
-5439.12
 20
5136.914500000001
 30
0.0
 40
25.0
  1
49.27 (5.04) --->
 50
-11.96294200377288
 72
1
 11
-5439.12
 21
5136.914500000001
 31
0.0
100
AcDbText
 73
3
  0
TEXT
  5
170
330
17
100
AcDbEntity
  8
0
100
AcDbText
 10
-3860.065
 20
8762.431
 30
0.0
 40
25.0
  1
12-470
 50
-4.6668502939919065
 72
1
 11
-3860.065
 21
8762.431
 31
0.0
100
AcDbText
 73
1
  0
TEXT
  5
171
330
17
100
AcDbEntity
  8
0
100
AcDbText
 10
-3860.065
 20
8762.431
 30
0.0
 40
25.0
  1
62.73 (6.42) --->
 50
-4.6668502939919065
 72
1
 11
-3860.065
 21
8762.431
 31
0.0
100
AcDbText
 73
3
  0
TEXT
  5
172
330
17
100
AcDbEntity
  8
0
100
AcDbText
 10
-2860.2035
 20
8079.0065
 30
0.0
 40
25.0
  1
12-169
 50
-65.79374888180341
 72
1
 11
-2860.2035
 21
8079.0065
 31
0.0
100
AcDbText
 73
1
  0
TEXT
  5
173
330
17
100
AcDbEntity
  8
0
100
AcDbText
 10
-2860.2035
 20
8079.0065
 30
0.0
 40
25.0
  1
0.0 (0.00) --->
 50
-65.79374888180341
 72
1
 11
-2860.2035
 21
8079.0065
 31
0.0
100
AcDbText
 73
3
  0
TEXT
  5
174
330
17
100
AcDbEntity
  8
0
100
AcDbText
 10
-3394.1725
 20
8410.2605
 30
0.0
 40
25.0
  1
12-469
 50
49.22224350031655
 72
1
 11
-3394.1725
 21
8410.2605
 31
0.0
100
AcDbText
 73
1
  0
TEXT
  5
175
330
17
100
AcDbEntity
  8
0
100
AcDbText
 10
-3394.1725
 20
8410.2605
 30
0.0
 40
25.0
  1
20.73 (2.12) --->
 50
49.22224350031655
 72
1
 11
-3394.1725
 21
8410.2605
 31
0.0
100
AcDbText
 73
3
  0
TEXT
  5
176
330
17
100
AcDbEntity
  8
0
100
AcDbText
 10
-3856.3965
 20
7669.2345000000005
 30
0.0
 40
25.0
  1
12-9764
 50
64.95739794618758
 72
1
 11
-3856.3965
 21
7669.2345000000005
 31
0.0
100
AcDbText
 73
1
  0
TEXT
  5
177
330
17
100
AcDbEntity
  8
0
100
AcDbText
 10
-3856.3965
 20
7669.2345000000005
 30
0.0
 40
25.0
  1
15.73 (1.61) --->
 50
64.95739794618758
 72
1
 11
-3856.3965
 21
7669.2345000000005
 31
0.0
100
AcDbText
 73
3
  0
TEXT
  5
178
330
17
100
AcDbEntity
  8
0
100
AcDbText
 10
-2477.0615000000003
 20
8824.7945
 30
0.0
 40
25.0
  1
12-369
 50
10.332685750971896
 72
1
 11
-2477.0615000000003
 21
8824.7945
 31
0.0
100
AcDbText
 73
1
  0
TEXT
  5
179
330
17
100
AcDbEntity
  8
0
100
AcDbText
 10
-2477.0615000000003
 20
8824.7945
 30
0.0
 40
25.0
  1
36.0 (3.68) --->
 50
10.332685750971896
 72
1
 11
-2477.0615000000003
 21
8824.7945
 31
0.0
100
AcDbText
 73
3
  0
TEXT
  5
17A
330
17
100
AcDbEntity
  8
0
100
AcDbText
 10
-1284.3965
 20
8136.608
 30
0.0
 40
25.0
  1
12-247
 50
52.56141881179711
 72
1
 11
-1284.3965
 21
8136.608
 31
0.0
100
AcDbText
 73
1
  0
TEXT
  5
17B
330
17
100
AcDbEntity
  8
0
100
AcDbText
 10
-1284.3965
 20
8136.608
 30
0.0
 40
25.0
  1
3.0 (0.31) --->
 50
52.56141881179711
 72
1
 11
-1284.3965
 21
8136.608
 31
0.0
100
AcDbText
 73
3
  0
TEXT
  5
17C
330
17
100
AcDbEntity
  8
0
100
AcDbText
 10
-5257.7425
 20
8689.062
 30
0.0
 40
25.0
  1
12-569
 50
11.011825774655884
 72
1
 11
-5257.7425
 21
8689.062
 31
0.0
100
AcDbText
 73
1
  0
TEXT
  5
17D
330
17
100
AcDbEntity
  8
0
100
AcDbText
 10
-5257.7425
 20
8689.062
 30
0.0
 40
25.0
  1
106.73 (10.92) --->
 50
11.011825774655884
 72
1
 11
-5257.7425
 21
8689.062
 31
0.0
100
AcDbText
 73
3
  0
TEXT
  5
17E
330
17
100
AcDbEntity
  8
0
100
AcDbText
 10
-4259.5045
 20
6144.643
 30
0.0
 40
25.0
  1
12-26
 50
-59.12321198791205
 72
1
 11
-4259.5045
 21
6144.643
 31
0.0
100
AcDbText
 73
1
  0
TEXT
  5
17F
330
17
100
AcDbEntity
  8
0
100
AcDbText
 10
-4259.5045
 20
6144.643
 30
0.0
 40
25.0
  1
37.27 (3.81) --->
 50
-59.12321198791205
 72
1
 11
-4259.5045
 21
6144.643
 31
0.0
100
AcDbText
 73
3
  0
TEXT
  5
180
330
17
100
AcDbEntity
  8
0
100
AcDbText
 10
-3888.992
 20
5880.514999999999
 30
0.0
 40
25.0
  1
12-2436
 50
30.173507403482517
 72
1
 11
-3888.992
 21
5880.514999999999
 31
0.0
100
AcDbText
 73
1
  0
TEXT
  5
181
330
17
100
AcDbEntity
  8
0
100
AcDbText
 10
-3888.992
 20
5880.514999999999
 30
0.0
 40
25.0
  1
12.27 (1.26) --->
 50
30.173507403482517
 72
1
 11
-3888.992
 21
5880.514999999999
 31
0.0
100
AcDbText
 73
3
  0
TEXT
  5
182
330
17
100
AcDbEntity
  8
0
100
AcDbText
 10
-3722.288
 20
6729.019
 30
0.0
 40
25.0
  1
12-852
 50
-55.13739916101724
 72
1
 11
-3722.288
 21
6729.019
 31
0.0
100
AcDbText
 73
1
  0
TEXT
  5
183
330
17
100
AcDbEntity
  8
0
100
AcDbText
 10
-3722.288
 20
6729.019
 30
0.0
 40
25.0
  1
10.73 (1.10) --->
 50
-55.13739916101724
 72
1
 11
-3722.288
 21
6729.019
 31
0.0
100
AcDbText
 73
3
  0
TEXT
  5
184
330
17
100
AcDbEntity
  8
0
100
AcDbText
 10
-3555.1634999999997
 20
6104.29
 30
0.0
 40
25.0
  1
12-4376
 50
36.869871614944785
 72
1
 11
-3555.1634999999997
 21
6104.29
 31
0.0
100
AcDbText
 73
1
  0
TEXT
  5
185
330
17
100
AcDbEntity
  8
0
100
AcDbText
 10
-3555.1634999999997
 20
6104.29
 30
0.0
 40
25.0
  1
3.73 (0.38) <---
 50
36.869871614944785
 72
1
 11
-3555.1634999999997
 21
6104.29
 31
0.0
100
AcDbText
 73
3
  0
TEXT
  5
186
330
17
100
AcDbEntity
  8
0
100
AcDbText
 10
-4252.1675
 20
5036.773
 30
0.0
 40
25.0
  1
12-124
 50
-53.615646181272055
 72
1
 11
-4252.1675
 21
5036.773
 31
0.0
100
AcDbText
 73
1
  0
TEXT
  5
187
330
17
100
AcDbEntity
  8
0
100
AcDbText
 10
-4252.1675
 20
5036.773
 30
0.0
 40
25.0
  1
0.0 (0.00) --->
 50
-53.615646181272055
 72
1
 11
-4252.1675
 21
5036.773
 31
0.0
100
AcDbText
 73
3
  0
TEXT
  5
188
330
17
100
AcDbEntity
  8
0
100
AcDbText
 10
-3756.928
 20
5311.906
 30
0.0
 40
25.0
  1
12-468
 50
-58.713293404699
 72
1
 11
-3756.928
 21
5311.906
 31
0.0
100
AcDbText
 73
1
  0
TEXT
  5
189
330
17
100
AcDbEntity
  8
0
100
AcDbText
 10
-3756.928
 20
5311.906
 30
0.0
 40
25.0
  1
5.0 (0.51) <---
 50
-58.713293404699
 72
1
 11
-3756.928
 21
5311.906
 31
0.0
100
AcDbText
 73
3
  0
TEXT
  5
18A
330
17
100
AcDbEntity
  8
0
100
AcDbText
 10
-3258.0195
 20
5410.954
 30
0.0
 40
25.0
  1
12-4376
 50
-49.864504493367455
 72
1
 11
-3258.0195
 21
5410.954
 31
0.0
100
AcDbText
 73
1
  0
TEXT
  5
18B
330
17
100
AcDbEntity
  8
0
100
AcDbText
 10
-3258.0195
 20
5410.954
 30
0.0
 40
25.0
  1
6.0 (0.61) --->
 50
-49.864504493367455
 72
1
 11
-3258.0195
 21
5410.954
 31
0.0
100
AcDbText
 73
3
  0
TEXT
  5
18C
330
17
100
AcDbEntity
  8
0
100
AcDbText
 10
-2359.2505
 20
4985.4145
 30
0.0
 40
25.0
  1
12-124
 50
17.69089857502
 72
1
 11
-2359.2505
 21
4985.4145
 31
0.0
100
AcDbText
 73
1
  0
TEXT
  5
18D
330
17
100
AcDbEntity
  8
0
100
AcDbText
 10
-2359.2505
 20
4985.4145
 30
0.0
 40
25.0
  1
2.0 (0.20) --->
 50
17.69089857502
 72
1
 11
-2359.2505
 21
4985.4145
 31
0.0
100
AcDbText
 73
3
  0
TEXT
  5
18E
330
17
100
AcDbEntity
  8
0
100
AcDbText
 10
-1494.554
 20
9031.399
 30
0.0
 40
25.0
  1
12-5425
 50
15.033408651703548
 72
1
 11
-1494.554
 21
9031.399
 31
0.0
100
AcDbText
 73
1
  0
TEXT
  5
18F
330
17
100
AcDbEntity
  8
0
100
AcDbText
 10
-1494.554
 20
9031.399
 30
0.0
 40
25.0
  1
6.0 (0.61) --->
 50
15.033408651703548
 72
1
 11
-1494.554
 21
9031.399
 31
0.0
100
AcDbText
 73
3
  0
INSERT
  5
190
330
17
100
AcDbEntity
  8
0
100
AcDbBlockReference
  2
arrow
 10
-512.372
 20
7134.985
 30
0.0
 41
0.5
 42
0.5
 50
225.0
  0
POLYLINE
  5
192
330
17
100
AcDbEntity
  8
0
 62
2
100
AcDb2dPolyline
 66
1
 10
0.0
 20
0.0
 30
0.0
 70
0
  0
VERTEX
  5
194
330
17
100
AcDbEntity
  8
0
100
AcDbVertex
100
AcDb2dVertex
 10
-562.372
 20
7184.985
 30
0.0
 70
0
  0
VERTEX
  5
195
330
17
100
AcDbEntity
  8
0
100
AcDbVertex
100
AcDb2dVertex
 10
-512.372
 20
7134.985
 30
0.0
 70
0
  0
SEQEND
  5
193
330
192
100
AcDbEntity
  8
0
  0
TEXT
  5
196
330
17
100
AcDbEntity
  8
0
 62
2
100
AcDbText
 10
-499.87199999999996
 20
7122.485
 30
0.0
 40
25.0
  1
20
 11
-499.87199999999996
 21
7122.485
 31
0.0
100
AcDbText
 73
3
  0
INSERT
  5
197
330
17
100
AcDbEntity
  8
0
100
AcDbBlockReference
  2
arrow
 10
2820.962
 20
4579.919
 30
0.0
 41
0.5
 42
0.5
 50
225.0
  0
POLYLINE
  5
199
330
17
100
AcDbEntity
  8
0
 62
2
100
AcDb2dPolyline
 66
1
 10
0.0
 20
0.0
 30
0.0
 70
0
  0
VERTEX
  5
19B
330
17
100
AcDbEntity
  8
0
100
AcDbVertex
100
AcDb2dVertex
 10
2770.962
 20
4629.919
 30
0.0
 70
0
  0
VERTEX
  5
19C
330
17
100
AcDbEntity
  8
0
100
AcDbVertex
100
AcDb2dVertex
 10
2820.962
 20
4579.919
 30
0.0
 70
0
  0
SEQEND
  5
19A
330
199
100
AcDbEntity
  8
0
  0
TEXT
  5
19D
330
17
100
AcDbEntity
  8
0
 62
2
100
AcDbText
 10
2833.462
 20
4567.419
 30
0.0
 40
25.0
  1
20
 11
2833.462
 21
4567.419
 31
0.0
100
AcDbText
 73
3
  0
INSERT
  5
19E
330
17
100
AcDbEntity
  8
0
100
AcDbBlockReference
  2
arrow
 10
7505.25
 20
7223.091
 30
0.0
 41
0.5
 42
0.5
 50
225.0
  0
POLYLINE
  5
1A0
330
17
100
AcDbEntity
  8
0
 62
2
100
AcDb2dPolyline
 66
1
 10
0.0
 20
0.0
 30
0.0
 70
0
  0
VERTEX
  5
1A2
330
17
100
AcDbEntity
  8
0
100
AcDbVertex
100
AcDb2dVertex
 10
7455.25
 20
7273.091
 30
0.0
 70
0
  0
VERTEX
  5
1A3
330
17
100
AcDbEntity
  8
0
100
AcDbVertex
100
AcDb2dVertex
 10
7505.25
 20
7223.091
 30
0.0
 70
0
  0
SEQEND
  5
1A1
330
1A0
100
AcDbEntity
  8
0
  0
TEXT
  5
1A4
330
17
100
AcDbEntity
  8
0
 62
2
100
AcDbText
 10
7517.75
 20
7210.591
 30
0.0
 40
25.0
  1
30
 11
7517.75
 21
7210.591
 31
0.0
100
AcDbText
 73
3
  0
INSERT
  5
1A5
330
17
100
AcDbEntity
  8
0
100
AcDbBlockReference
  2
arrow
 10
-2568.231
 20
6734.944
 30
0.0
 41
0.5
 42
0.5
 50
225.0
  0
POLYLINE
  5
1A7
330
17
100
AcDbEntity
  8
0
 62
2
100
AcDb2dPolyline
 66
1
 10
0.0
 20
0.0
 30
0.0
 70
0
  0
VERTEX
  5
1A9
330
17
100
AcDbEntity
  8
0
100
AcDbVertex
100
AcDb2dVertex
 10
-2618.231
 20
6784.944
 30
0.0
 70
0
  0
VERTEX
  5
1AA
330
17
100
AcDbEntity
  8
0
100
AcDbVertex
100
AcDb2dVertex
 10
-2568.231
 20
6734.944
 30
0.0
 70
0
  0
SEQEND
  5
1A8
330
1A7
100
AcDbEntity
  8
0
  0
TEXT
  5
1AB
330
17
100
AcDbEntity
  8
0
 62
2
100
AcDbText
 10
-2555.731
 20
6722.444
 30
0.0
 40
25.0
  1
20
 11
-2555.731
 21
6722.444
 31
0.0
100
AcDbText
 73
3
  0
INSERT
  5
1AC
330
17
100
AcDbEntity
  8
0
100
AcDbBlockReference
  2
arrow
 10
-1489.708
 20
6764.292
 30
0.0
 41
0.5
 42
0.5
 50
225.0
  0
POLYLINE
  5
1AE
330
17
100
AcDbEntity
  8
0
 62
2
100
AcDb2dPolyline
 66
1
 10
0.0
 20
0.0
 30
0.0
 70
0
  0
VERTEX
  5
1B0
330
17
100
AcDbEntity
  8
0
100
AcDbVertex
100
AcDb2dVertex
 10
-1539.708
 20
6814.292
 30
0.0
 70
0
  0
VERTEX
  5
1B1
330
17
100
AcDbEntity
  8
0
100
AcDbVertex
100
AcDb2dVertex
 10
-1489.708
 20
6764.292
 30
0.0
 70
0
  0
SEQEND
  5
1AF
330
1AE
100
AcDbEntity
  8
0
  0
TEXT
  5
1B2
330
17
100
AcDbEntity
  8
0
 62
2
100
AcDbText
 10
-1477.208
 20
6751.792
 30
0.0
 40
25.0
  1
20
 11
-1477.208
 21
6751.792
 31
0.0
100
AcDbText
 73
3
  0
INSERT
  5
1B3
330
17
100
AcDbEntity
  8
0
100
AcDbBlockReference
  2
arrow
 10
-4683.413
 20
7709.437
 30
0.0
 41
0.5
 42
0.5
 50
225.0
  0
POLYLINE
  5
1B5
330
17
100
AcDbEntity
  8
0
 62
2
100
AcDb2dPolyline
 66
1
 10
0.0
 20
0.0
 30
0.0
 70
0
  0
VERTEX
  5
1B7
330
17
100
AcDbEntity
  8
0
100
AcDbVertex
100
AcDb2dVertex
 10
-4733.413
 20
7759.437
 30
0.0
 70
0
  0
VERTEX
  5
1B8
330
17
100
AcDbEntity
  8
0
100
AcDbVertex
100
AcDb2dVertex
 10
-4683.413
 20
7709.437
 30
0.0
 70
0
  0
SEQEND
  5
1B6
330
1B5
100
AcDbEntity
  8
0
  0
TEXT
  5
1B9
330
17
100
AcDbEntity
  8
0
 62
2
100
AcDbText
 10
-4670.913
 20
7696.937
 30
0.0
 40
25.0
  1
2
 11
-4670.913
 21
7696.937
 31
0.0
100
AcDbText
 73
3
  0
INSERT
  5
1BA
330
17
100
AcDbEntity
  8
0
100
AcDbBlockReference
  2
arrow
 10
-5042.92
 20
6953.738
 30
0.0
 41
0.5
 42
0.5
 50
225.0
  0
POLYLINE
  5
1BC
330
17
100
AcDbEntity
  8
0
 62
2
100
AcDb2dPolyline
 66
1
 10
0.0
 20
0.0
 30
0.0
 70
0
  0
VERTEX
  5
1BE
330
17
100
AcDbEntity
  8
0
100
AcDbVertex
100
AcDb2dVertex
 10
-5092.92
 20
7003.738
 30
0.0
 70
0
  0
VERTEX
  5
1BF
330
17
100
AcDbEntity
  8
0
100
AcDbVertex
100
AcDb2dVertex
 10
-5042.92
 20
6953.738
 30
0.0
 70
0
  0
SEQEND
  5
1BD
330
1BC
100
AcDbEntity
  8
0
  0
TEXT
  5
1C0
330
17
100
AcDbEntity
  8
0
 62
2
100
AcDbText
 10
-5030.42
 20
6941.238
 30
0.0
 40
25.0
  1
2
 11
-5030.42
 21
6941.238
 31
0.0
100
AcDbText
 73
3
  0
INSERT
  5
1C1
330
17
100
AcDbEntity
  8
0
100
AcDbBlockReference
  2
arrow
 10
-5505.144
 20
6315.429
 30
0.0
 41
0.5
 42
0.5
 50
225.0
  0
POLYLINE
  5
1C3
330
17
100
AcDbEntity
  8
0
 62
2
100
AcDb2dPolyline
 66
1
 10
0.0
 20
0.0
 30
0.0
 70
0
  0
VERTEX
  5
1C5
330
17
100
AcDbEntity
  8
0
100
AcDbVertex
100
AcDb2dVertex
 10
-5555.144
 20
6365.429
 30
0.0
 70
0
  0
VERTEX
  5
1C6
330
17
100
AcDbEntity
  8
0
100
AcDbVertex
100
AcDb2dVertex
 10
-5505.144
 20
6315.429
 30
0.0
 70
0
  0
SEQEND
  5
1C4
330
1C3
100
AcDbEntity
  8
0
  0
TEXT
  5
1C7
330
17
100
AcDbEntity
  8
0
 62
2
100
AcDbText
 10
-5492.644
 20
6302.929
 30
0.0
 40
25.0
  1
2
 11
-5492.644
 21
6302.929
 31
0.0
100
AcDbText
 73
3
  0
INSERT
  5
1C8
330
17
100
AcDbEntity
  8
0
100
AcDbBlockReference
  2
arrow
 10
-4397.274
 20
6425.482
 30
0.0
 41
0.5
 42
0.5
 50
225.0
  0
POLYLINE
  5
1CA
330
17
100
AcDbEntity
  8
0
 62
2
100
AcDb2dPolyline
 66
1
 10
0.0
 20
0.0
 30
0.0
 70
0
  0
VERTEX
  5
1CC
330
17
100
AcDbEntity
  8
0
100
AcDbVertex
100
AcDb2dVertex
 10
-4447.274
 20
6475.482
 30
0.0
 70
0
  0
VERTEX
  5
1CD
330
17
100
AcDbEntity
  8
0
100
AcDbVertex
100
AcDb2dVertex
 10
-4397.274
 20
6425.482
 30
0.0
 70
0
  0
SEQEND
  5
1CB
330
1CA
100
AcDbEntity
  8
0
  0
TEXT
  5
1CE
330
17
100
AcDbEntity
  8
0
 62
2
100
AcDbText
 10
-4384.774
 20
6412.982
 30
0.0
 40
25.0
  1
2
 11
-4384.774
 21
6412.982
 31
0.0
100
AcDbText
 73
3
  0
INSERT
  5
1CF
330
17
100
AcDbEntity
  8
0
100
AcDbBlockReference
  2
arrow
 10
-4536.675
 20
5449.676
 30
0.0
 41
0.5
 42
0.5
 50
225.0
  0
POLYLINE
  5
1D1
330
17
100
AcDbEntity
  8
0
 62
2
100
AcDb2dPolyline
 66
1
 10
0.0
 20
0.0
 30
0.0
 70
0
  0
VERTEX
  5
1D3
330
17
100
AcDbEntity
  8
0
100
AcDbVertex
100
AcDb2dVertex
 10
-4586.675
 20
5499.676
 30
0.0
 70
0
  0
VERTEX
  5
1D4
330
17
100
AcDbEntity
  8
0
100
AcDbVertex
100
AcDb2dVertex
 10
-4536.675
 20
5449.676
 30
0.0
 70
0
  0
SEQEND
  5
1D2
330
1D1
100
AcDbEntity
  8
0
  0
TEXT
  5
1D5
330
17
100
AcDbEntity
  8
0
 62
2
100
AcDbText
 10
-4524.175
 20
5437.176
 30
0.0
 40
25.0
  1
2
 11
-4524.175
 21
5437.176
 31
0.0
100
AcDbText
 73
3
  0
INSERT
  5
1D6
330
17
100
AcDbEntity
  8
0
100
AcDbBlockReference
  2
arrow
 10
-4874.172
 20
4958.104
 30
0.0
 41
0.5
 42
0.5
 50
225.0
  0
POLYLINE
  5
1D8
330
17
100
AcDbEntity
  8
0
 62
2
100
AcDb2dPolyline
 66
1
 10
0.0
 20
0.0
 30
0.0
 70
0
  0
VERTEX
  5
1DA
330
17
100
AcDbEntity
  8
0
100
AcDbVertex
100
AcDb2dVertex
 10
-4924.172
 20
5008.104
 30
0.0
 70
0
  0
VERTEX
  5
1DB
330
17
100
AcDbEntity
  8
0
100
AcDbVertex
100
AcDb2dVertex
 10
-4874.172
 20
4958.104
 30
0.0
 70
0
  0
SEQEND
  5
1D9
330
1D8
100
AcDbEntity
  8
0
  0
TEXT
  5
1DC
330
17
100
AcDbEntity
  8
0
 62
2
100
AcDbText
 10
-4861.672
 20
4945.604
 30
0.0
 40
25.0
  1
2
 11
-4861.672
 21
4945.604
 31
0.0
100
AcDbText
 73
3
  0
INSERT
  5
1DD
330
17
100
AcDbEntity
  8
0
100
AcDbBlockReference
  2
arrow
 10
-3066.05
 20
8628.736
 30
0.0
 41
0.5
 42
0.5
 50
225.0
  0
POLYLINE
  5
1DF
330
17
100
AcDbEntity
  8
0
 62
2
100
AcDb2dPolyline
 66
1
 10
0.0
 20
0.0
 30
0.0
 70
0
  0
VERTEX
  5
1E1
330
17
100
AcDbEntity
  8
0
100
AcDbVertex
100
AcDb2dVertex
 10
-3116.05
 20
8678.736
 30
0.0
 70
0
  0
VERTEX
  5
1E2
330
17
100
AcDbEntity
  8
0
100
AcDbVertex
100
AcDb2dVertex
 10
-3066.05
 20
8628.736
 30
0.0
 70
0
  0
SEQEND
  5
1E0
330
1DF
100
AcDbEntity
  8
0
  0
TEXT
  5
1E3
330
17
100
AcDbEntity
  8
0
 62
2
100
AcDbText
 10
-3053.55
 20
8616.236
 30
0.0
 40
25.0
  1
6
 11
-3053.55
 21
8616.236
 31
0.0
100
AcDbText
 73
3
  0
INSERT
  5
1E4
330
17
100
AcDbEntity
  8
0
100
AcDbBlockReference
  2
arrow
 10
-3572.295
 20
8041.785
 30
0.0
 41
0.5
 42
0.5
 50
225.0
  0
POLYLINE
  5
1E6
330
17
100
AcDbEntity
  8
0
 62
2
100
AcDb2dPolyline
 66
1
 10
0.0
 20
0.0
 30
0.0
 70
0
  0
VERTEX
  5
1E8
330
17
100
AcDbEntity
  8
0
100
AcDbVertex
100
AcDb2dVertex
 10
-3622.295
 20
8091.785
 30
0.0
 70
0
  0
VERTEX
  5
1E9
330
17
100
AcDbEntity
  8
0
100
AcDbVertex
100
AcDb2dVertex
 10
-3572.295
 20
8041.785
 30
0.0
 70
0
  0
SEQEND
  5
1E7
330
1E6
100
AcDbEntity
  8
0
  0
TEXT
  5
1EA
330
17
100
AcDbEntity
  8
0
 62
2
100
AcDbText
 10
-3559.795
 20
8029.285
 30
0.0
 40
25.0
  1
5
 11
-3559.795
 21
8029.285
 31
0.0
100
AcDbText
 73
3
  0
INSERT
  5
1EB
330
17
100
AcDbEntity
  8
0
100
AcDbBlockReference
  2
arrow
 10
-3990.498
 20
7146.684
 30
0.0
 41
0.5
 42
0.5
 50
225.0
  0
POLYLINE
  5
1ED
330
17
100
AcDbEntity
  8
0
 62
2
100
AcDb2dPolyline
 66
1
 10
0.0
 20
0.0
 30
0.0
 70
0
  0
VERTEX
  5
1EF
330
17
100
AcDbEntity
  8
0
100
AcDbVertex
100
AcDb2dVertex
 10
-4040.498
 20
7196.684
 30
0.0
 70
0
  0
VERTEX
  5
1F0
330
17
100
AcDbEntity
  8
0
100
AcDbVertex
100
AcDb2dVertex
 10
-3990.498
 20
7146.684
 30
0.0
 70
0
  0
SEQEND
  5
1EE
330
1ED
100
AcDbEntity
  8
0
  0
TEXT
  5
1F1
330
17
100
AcDbEntity
  8
0
 62
2
100
AcDbText
 10
-3977.998
 20
7134.184
 30
0.0
 40
25.0
  1
5
 11
-3977.998
 21
7134.184
 31
0.0
100
AcDbText
 73
3
  0
INSERT
  5
1F2
330
17
100
AcDbEntity
  8
0
100
AcDbBlockReference
  2
arrow
 10
-1389.15
 20
7826.828
 30
0.0
 41
0.5
 42
0.5
 50
225.0
  0
POLYLINE
  5
1F4
330
17
100
AcDbEntity
  8
0
 62
2
100
AcDb2dPolyline
 66
1
 10
0.0
 20
0.0
 30
0.0
 70
0
  0
VERTEX
  5
1F6
330
17
100
AcDbEntity
  8
0
100
AcDbVertex
100
AcDb2dVertex
 10
-1439.15
 20
7876.828
 30
0.0
 70
0
  0
VERTEX
  5
1F7
330
17
100
AcDbEntity
  8
0
100
AcDbVertex
100
AcDb2dVertex
 10
-1389.15
 20
7826.828
 30
0.0
 70
0
  0
SEQEND
  5
1F5
330
1F4
100
AcDbEntity
  8
0
  0
TEXT
  5
1F8
330
17
100
AcDbEntity
  8
0
 62
2
100
AcDbText
 10
-1376.65
 20
7814.328
 30
0.0
 40
25.0
  1
3
 11
-1376.65
 21
7814.328
 31
0.0
100
AcDbText
 73
3
  0
INSERT
  5
1F9
330
17
100
AcDbEntity
  8
0
100
AcDbBlockReference
  2
arrow
 10
-1029.643
 20
8296.388
 30
0.0
 41
0.5
 42
0.5
 50
225.0
  0
POLYLINE
  5
1FB
330
17
100
AcDbEntity
  8
0
 62
2
100
AcDb2dPolyline
 66
1
 10
0.0
 20
0.0
 30
0.0
 70
0
  0
VERTEX
  5
1FD
330
17
100
AcDbEntity
  8
0
100
AcDbVertex
100
AcDb2dVertex
 10
-1079.643
 20
8346.388
 30
0.0
 70
0
  0
VERTEX
  5
1FE
330
17
100
AcDbEntity
  8
0
100
AcDbVertex
100
AcDb2dVertex
 10
-1029.643
 20
8296.388
 30
0.0
 70
0
  0
SEQEND
  5
1FC
330
1FB
100
AcDbEntity
  8
0
  0
TEXT
  5
1FF
330
17
100
AcDbEntity
  8
0
 62
2
100
AcDbText
 10
-1017.143
 20
8283.888
 30
0.0
 40
25.0
  1
3
 11
-1017.143
 21
8283.888
 31
0.0
100
AcDbText
 73
3
  0
INSERT
  5
200
330
17
100
AcDbEntity
  8
0
100
AcDbBlockReference
  2
arrow
 10
-1738.073
 20
8870.853
 30
0.0
 41
0.5
 42
0.5
 50
225.0
  0
POLYLINE
  5
202
330
17
100
AcDbEntity
  8
0
 62
2
100
AcDb2dPolyline
 66
1
 10
0.0
 20
0.0
 30
0.0
 70
0
  0
VERTEX
  5
204
330
17
100
AcDbEntity
  8
0
100
AcDbVertex
100
AcDb2dVertex
 10
-1788.073
 20
8920.853
 30
0.0
 70
0
  0
VERTEX
  5
205
330
17
100
AcDbEntity
  8
0
100
AcDbVertex
100
AcDb2dVertex
 10
-1738.073
 20
8870.853
 30
0.0
 70
0
  0
SEQEND
  5
203
330
202
100
AcDbEntity
  8
0
  0
TEXT
  5
206
330
17
100
AcDbEntity
  8
0
 62
2
100
AcDbText
 10
-1725.573
 20
8858.353
 30
0.0
 40
25.0
  1
30
 11
-1725.573
 21
8858.353
 31
0.0
100
AcDbText
 73
3
  0
INSERT
  5
207
330
17
100
AcDbEntity
  8
0
100
AcDbBlockReference
  2
arrow
 10
-4504.08
 20
8746.126
 30
0.0
 41
0.5
 42
0.5
 50
225.0
  0
POLYLINE
  5
209
330
17
100
AcDbEntity
  8
0
 62
2
100
AcDb2dPolyline
 66
1
 10
0.0
 20
0.0
 30
0.0
 70
0
  0
VERTEX
  5
20B
330
17
100
AcDbEntity
  8
0
100
AcDbVertex
100
AcDb2dVertex
 10
-4554.08
 20
8796.126
 30
0.0
 70
0
  0
VERTEX
  5
20C
330
17
100
AcDbEntity
  8
0
100
AcDbVertex
100
AcDb2dVertex
 10
-4504.08
 20
8746.126
 30
0.0
 70
0
  0
SEQEND
  5
20A
330
209
100
AcDbEntity
  8
0
  0
TEXT
  5
20D
330
17
100
AcDbEntity
  8
0
 62
2
100
AcDbText
 10
-4491.58
 20
8733.626
 30
0.0
 40
25.0
  1
44
 11
-4491.58
 21
8733.626
 31
0.0
100
AcDbText
 73
3
  0
INSERT
  5
20E
330
17
100
AcDbEntity
  8
0
100
AcDbBlockReference
  2
arrow
 10
-3971.735
 20
5713.804
 30
0.0
 41
0.5
 42
0.5
 50
225.0
  0
POLYLINE
  5
210
330
17
100
AcDbEntity
  8
0
 62
2
100
AcDb2dPolyline
 66
1
 10
0.0
 20
0.0
 30
0.0
 70
0
  0
VERTEX
  5
212
330
17
100
AcDbEntity
  8
0
100
AcDbVertex
100
AcDb2dVertex
 10
-4021.735
 20
5763.804
 30
0.0
 70
0
  0
VERTEX
  5
213
330
17
100
AcDbEntity
  8
0
100
AcDbVertex
100
AcDb2dVertex
 10
-3971.735
 20
5713.804
 30
0.0
 70
0
  0
SEQEND
  5
211
330
210
100
AcDbEntity
  8
0
  0
TEXT
  5
214
330
17
100
AcDbEntity
  8
0
 62
2
100
AcDbText
 10
-3959.235
 20
5701.304
 30
0.0
 40
25.0
  1
20
 11
-3959.235
 21
5701.304
 31
0.0
100
AcDbText
 73
3
  0
INSERT
  5
215
330
17
100
AcDbEntity
  8
0
100
AcDbBlockReference
  2
arrow
 10
-3656.249
 20
5897.226
 30
0.0
 41
0.5
 42
0.5
 50
225.0
  0
POLYLINE
  5
217
330
17
100
AcDbEntity
  8
0
 62
2
100
AcDb2dPolyline
 66
1
 10
0.0
 20
0.0
 30
0.0
 70
0
  0
VERTEX
  5
219
330
17
100
AcDbEntity
  8
0
100
AcDbVertex
100
AcDb2dVertex
 10
-3706.249
 20
5947.226
 30
0.0
 70
0
  0
VERTEX
  5
21A
330
17
100
AcDbEntity
  8
0
100
AcDbVertex
100
AcDb2dVertex
 10
-3656.249
 20
5897.226
 30
0.0
 70
0
  0
SEQEND
  5
218
330
217
100
AcDbEntity
  8
0
  0
TEXT
  5
21B
330
17
100
AcDbEntity
  8
0
 62
2
100
AcDbText
 10
-3643.749
 20
5884.726
 30
0.0
 40
25.0
  1
10
 11
-3643.749
 21
5884.726
 31
0.0
100
AcDbText
 73
3
  0
INSERT
  5
21C
330
17
100
AcDbEntity
  8
0
100
AcDbBlockReference
  2
arrow
 10
-3304.078
 20
6161.354
 30
0.0
 41
0.5
 42
0.5
 50
225.0
  0
POLYLINE
  5
21E
330
17
100
AcDbEntity
  8
0
 62
2
100
AcDb2dPolyline
 66
1
 10
0.0
 20
0.0
 30
0.0
 70
0
  0
VERTEX
  5
220
330
17
100
AcDbEntity
  8
0
100
AcDbVertex
100
AcDb2dVertex
 10
-3354.078
 20
6211.354
 30
0.0
 70
0
  0
VERTEX
  5
221
330
17
100
AcDbEntity
  8
0
100
AcDbVertex
100
AcDb2dVertex
 10
-3304.078
 20
6161.354
 30
0.0
 70
0
  0
SEQEND
  5
21F
330
21E
100
AcDbEntity
  8
0
  0
TEXT
  5
222
330
17
100
AcDbEntity
  8
0
 62
2
100
AcDbText
 10
-3291.578
 20
6148.854
 30
0.0
 40
25.0
  1
7
 11
-3291.578
 21
6148.854
 31
0.0
100
AcDbText
 73
3
  0
INSERT
  5
223
330
17
100
AcDbEntity
  8
0
100
AcDbBlockReference
  2
arrow
 10
-3392.121
 20
4760.008
 30
0.0
 41
0.5
 42
0.5
 50
225.0
  0
POLYLINE
  5
225
330
17
100
AcDbEntity
  8
0
 62
2
100
AcDb2dPolyline
 66
1
 10
0.0
 20
0.0
 30
0.0
 70
0
  0
VERTEX
  5
227
330
17
100
AcDbEntity
  8
0
100
AcDbVertex
100
AcDb2dVertex
 10
-3442.121
 20
4810.008
 30
0.0
 70
0
  0
VERTEX
  5
228
330
17
100
AcDbEntity
  8
0
100
AcDbVertex
100
AcDb2dVertex
 10
-3392.121
 20
4760.008
 30
0.0
 70
0
  0
SEQEND
  5
226
330
225
100
AcDbEntity
  8
0
  0
TEXT
  5
229
330
17
100
AcDbEntity
  8
0
 62
2
100
AcDbText
 10
-3379.621
 20
4747.508
 30
0.0
 40
25.0
  1
5
 11
-3379.621
 21
4747.508
 31
0.0
100
AcDbText
 73
3
  0
INSERT
  5
22A
330
17
100
AcDbEntity
  8
0
100
AcDbBlockReference
  2
arrow
 10
-2709.79
 20
4774.682
 30
0.0
 41
0.5
 42
0.5
 50
225.0
  0
POLYLINE
  5
22C
330
17
100
AcDbEntity
  8
0
 62
2
100
AcDb2dPolyline
 66
1
 10
0.0
 20
0.0
 30
0.0
 70
0
  0
VERTEX
  5
22E
330
17
100
AcDbEntity
  8
0
100
AcDbVertex
100
AcDb2dVertex
 10
-2759.79
 20
4824.682
 30
0.0
 70
0
  0
VERTEX
  5
22F
330
17
100
AcDbEntity
  8
0
100
AcDbVertex
100
AcDb2dVertex
 10
-2709.79
 20
4774.682
 30
0.0
 70
0
  0
SEQEND
  5
22D
330
22C
100
AcDbEntity
  8
0
  0
TEXT
  5
230
330
17
100
AcDbEntity
  8
0
 62
2
100
AcDbText
 10
-2697.29
 20
4762.182
 30
0.0
 40
25.0
  1
4
 11
-2697.29
 21
4762.182
 31
0.0
100
AcDbText
 73
3
  0
INSERT
  5
231
330
17
100
AcDbEntity
  8
0
100
AcDbBlockReference
  2
arrow
 10
-1858.711
 20
5046.147
 30
0.0
 41
0.5
 42
0.5
 50
225.0
  0
POLYLINE
  5
233
330
17
100
AcDbEntity
  8
0
 62
2
100
AcDb2dPolyline
 66
1
 10
0.0
 20
0.0
 30
0.0
 70
0
  0
VERTEX
  5
235
330
17
100
AcDbEntity
  8
0
100
AcDbVertex
100
AcDb2dVertex
 10
-1908.711
 20
5096.147
 30
0.0
 70
0
  0
VERTEX
  5
236
330
17
100
AcDbEntity
  8
0
100
AcDbVertex
100
AcDb2dVertex
 10
-1858.711
 20
5046.147
 30
0.0
 70
0
  0
SEQEND
  5
234
330
233
100
AcDbEntity
  8
0
  0
TEXT
  5
237
330
17
100
AcDbEntity
  8
0
 62
2
100
AcDbText
 10
-1846.211
 20
5033.647
 30
0.0
 40
25.0
  1
2
 11
-1846.211
 21
5033.647
 31
0.0
100
AcDbText
 73
3
  0
POLYLINE
  5
238
330
17
100
AcDbEntity
  8
0
 62
210
100
AcDb2dPolyline
 66
1
 10
0.0
 20
0.0
 30
0.0
 70
0
  0
VERTEX
  5
23A
330
17
100
AcDbEntity
  8
0
100
AcDbVertex
100
AcDb2dVertex
 10
-562.372
 20
7234.985
 30
0.0
 70
0
  0
VERTEX
  5
23B
330
17
100
AcDbEntity
  8
0
100
AcDbVertex
100
AcDb2dVertex
 10
-512.372
 20
7284.985
 30
0.0
 70
0
  0
VERTEX
  5
23C
330
17
100
AcDbEntity
  8
0
100
AcDbVertex
100
AcDb2dVertex
 10
-312.37199999999996
 20
7284.985
 30
0.0
 70
0
  0
SEQEND
  5
239
330
238
100
AcDbEntity
  8
0
  0
TEXT
  5
23D
330
17
100
AcDbEntity
  8
0
 62
210
100
AcDbText
 10
-312.37199999999996
 20
7302.485
 30
0.0
 40
25.0
  1
20.00
 72
2
 11
-312.37199999999996
 21
7302.485
 31
0.0
100
AcDbText
 73
2
  0
POLYLINE
  5
23E
330
17
100
AcDbEntity
  8
0
 62
210
100
AcDb2dPolyline
 66
1
 10
0.0
 20
0.0
 30
0.0
 70
0
  0
VERTEX
  5
240
330
17
100
AcDbEntity
  8
0
100
AcDbVertex
100
AcDb2dVertex
 10
2770.962
 20
4679.919
 30
0.0
 70
0
  0
VERTEX
  5
241
330
17
100
AcDbEntity
  8
0
100
AcDbVertex
100
AcDb2dVertex
 10
2820.962
 20
4729.919
 30
0.0
 70
0
  0
VERTEX
  5
242
330
17
100
AcDbEntity
  8
0
100
AcDbVertex
100
AcDb2dVertex
 10
3020.962
 20
4729.919
 30
0.0
 70
0
  0
SEQEND
  5
23F
330
23E
100
AcDbEntity
  8
0
  0
TEXT
  5
243
330
17
100
AcDbEntity
  8
0
 62
210
100
AcDbText
 10
3020.962
 20
4747.419
 30
0.0
 40
25.0
  1
35.00
 72
2
 11
3020.962
 21
4747.419
 31
0.0
100
AcDbText
 73
2
  0
POLYLINE
  5
244
330
17
100
AcDbEntity
  8
0
 62
210
100
AcDb2dPolyline
 66
1
 10
0.0
 20
0.0
 30
0.0
 70
0
  0
VERTEX
  5
246
330
17
100
AcDbEntity
  8
0
100
AcDbVertex
100
AcDb2dVertex
 10
7455.25
 20
7323.091
 30
0.0
 70
0
  0
VERTEX
  5
247
330
17
100
AcDbEntity
  8
0
100
AcDbVertex
100
AcDb2dVertex
 10
7505.25
 20
7373.091
 30
0.0
 70
0
  0
VERTEX
  5
248
330
17
100
AcDbEntity
  8
0
100
AcDbVertex
100
AcDb2dVertex
 10
7705.25
 20
7373.091
 30
0.0
 70
0
  0
SEQEND
  5
245
330
244
100
AcDbEntity
  8
0
  0
TEXT
  5
249
330
17
100
AcDbEntity
  8
0
 62
210
100
AcDbText
 10
7705.25
 20
7390.591
 30
0.0
 40
25.0
  1
20.00
 72
2
 11
7705.25
 21
7390.591
 31
0.0
100
AcDbText
 73
2
  0
POLYLINE
  5
24A
330
17
100
AcDbEntity
  8
0
 62
210
100
AcDb2dPolyline
 66
1
 10
0.0
 20
0.0
 30
0.0
 70
0
  0
VERTEX
  5
24C
330
17
100
AcDbEntity
  8
0
100
AcDbVertex
100
AcDb2dVertex
 10
1798.576
 20
8206.942
 30
0.0
 70
0
  0
VERTEX
  5
24D
330
17
100
AcDbEntity
  8
0
100
AcDbVertex
100
AcDb2dVertex
 10
1848.576
 20
8256.942
 30
0.0
 70
0
  0
VERTEX
  5
24E
330
17
100
AcDbEntity
  8
0
100
AcDbVertex
100
AcDb2dVertex
 10
2048.576
 20
8256.942
 30
0.0
 70
0
  0
SEQEND
  5
24B
330
24A
100
AcDbEntity
  8
0
  0
TEXT
  5
24F
330
17
100
AcDbEntity
  8
0
 62
210
100
AcDbText
 10
2048.576
 20
8274.442
 30
0.0
 40
25.0
  1
20.00
 72
2
 11
2048.576
 21
8274.442
 31
0.0
100
AcDbText
 73
2
  0
POLYLINE
  5
250
330
17
100
AcDbEntity
  8
0
 62
210
100
AcDb2dPolyline
 66
1
 10
0.0
 20
0.0
 30
0.0
 70
0
  0
VERTEX
  5
252
330
17
100
AcDbEntity
  8
0
100
AcDbVertex
100
AcDb2dVertex
 10
2238.789
 20
8199.605
 30
0.0
 70
0
  0
VERTEX
  5
253
330
17
100
AcDbEntity
  8
0
100
AcDbVertex
100
AcDb2dVertex
 10
2288.789
 20
8249.605
 30
0.0
 70
0
  0
VERTEX
  5
254
330
17
100
AcDbEntity
  8
0
100
AcDbVertex
100
AcDb2dVertex
 10
2488.789
 20
8249.605
 30
0.0
 70
0
  0
SEQEND
  5
251
330
250
100
AcDbEntity
  8
0
  0
TEXT
  5
255
330
17
100
AcDbEntity
  8
0
 62
210
100
AcDbText
 10
2488.789
 20
8267.105
 30
0.0
 40
25.0
  1
20.00
 72
2
 11
2488.789
 21
8267.105
 31
0.0
100
AcDbText
 73
2
  0
POLYLINE
  5
256
330
17
100
AcDbEntity
  8
0
 62
210
100
AcDb2dPolyline
 66
1
 10
0.0
 20
0.0
 30
0.0
 70
0
  0
VERTEX
  5
258
330
17
100
AcDbEntity
  8
0
100
AcDbVertex
100
AcDb2dVertex
 10
-2618.231
 20
6834.944
 30
0.0
 70
0
  0
VERTEX
  5
259
330
17
100
AcDbEntity
  8
0
100
AcDbVertex
100
AcDb2dVertex
 10
-2568.231
 20
6884.944
 30
0.0
 70
0
  0
VERTEX
  5
25A
330
17
100
AcDbEntity
  8
0
100
AcDbVertex
100
AcDb2dVertex
 10
-2368.231
 20
6884.944
 30
0.0
 70
0
  0
SEQEND
  5
257
330
256
100
AcDbEntity
  8
0
  0
TEXT
  5
25B
330
17
100
AcDbEntity
  8
0
 62
210
100
AcDbText
 10
-2368.231
 20
6902.444
 30
0.0
 40
25.0
  1
60.00
 72
2
 11
-2368.231
 21
6902.444
 31
0.0
100
AcDbText
 73
2
  0
POLYLINE
  5
25C
330
17
100
AcDbEntity
  8
0
 62
210
100
AcDb2dPolyline
 66
1
 10
0.0
 20
0.0
 30
0.0
 70
0
  0
VERTEX
  5
25E
330
17
100
AcDbEntity
  8
0
100
AcDbVertex
100
AcDb2dVertex
 10
-1539.708
 20
6864.292
 30
0.0
 70
0
  0
VERTEX
  5
25F
330
17
100
AcDbEntity
  8
0
100
AcDbVertex
100
AcDb2dVertex
 10
-1489.708
 20
6914.292
 30
0.0
 70
0
  0
VERTEX
  5
260
330
17
100
AcDbEntity
  8
0
100
AcDbVertex
100
AcDb2dVertex
 10
-1289.708
 20
6914.292
 30
0.0
 70
0
  0
SEQEND
  5
25D
330
25C
100
AcDbEntity
  8
0
  0
TEXT
  5
261
330
17
100
AcDbEntity
  8
0
 62
210
100
AcDbText
 10
-1289.708
 20
6931.792
 30
0.0
 40
25.0
  1
80.00
 72
2
 11
-1289.708
 21
6931.792
 31
0.0
100
AcDbText
 73
2
  0
POLYLINE
  5
262
330
17
100
AcDbEntity
  8
0
 62
210
100
AcDb2dPolyline
 66
1
 10
0.0
 20
0.0
 30
0.0
 70
0
  0
VERTEX
  5
264
330
17
100
AcDbEntity
  8
0
100
AcDbVertex
100
AcDb2dVertex
 10
-2644.522
 20
5385.429
 30
0.0
 70
0
  0
VERTEX
  5
265
330
17
100
AcDbEntity
  8
0
100
AcDbVertex
100
AcDb2dVertex
 10
-2594.522
 20
5435.429
 30
0.0
 70
0
  0
VERTEX
  5
266
330
17
100
AcDbEntity
  8
0
100
AcDbVertex
100
AcDb2dVertex
 10
-2394.522
 20
5435.429
 30
0.0
 70
0
  0
SEQEND
  5
263
330
262
100
AcDbEntity
  8
0
  0
TEXT
  5
267
330
17
100
AcDbEntity
  8
0
 62
210
100
AcDbText
 10
-2394.522
 20
5452.929
 30
0.0
 40
25.0
  1
20.00
 72
2
 11
-2394.522
 21
5452.929
 31
0.0
100
AcDbText
 73
2
  0
POLYLINE
  5
268
330
17
100
AcDbEntity
  8
0
 62
210
100
AcDb2dPolyline
 66
1
 10
0.0
 20
0.0
 30
0.0
 70
0
  0
VERTEX
  5
26A
330
17
100
AcDbEntity
  8
0
100
AcDbVertex
100
AcDb2dVertex
 10
-2666.517
 20
5488.072
 30
0.0
 70
0
  0
VERTEX
  5
26B
330
17
100
AcDbEntity
  8
0
100
AcDbVertex
100
AcDb2dVertex
 10
-2616.517
 20
5538.072
 30
0.0
 70
0
  0
VERTEX
  5
26C
330
17
100
AcDbEntity
  8
0
100
AcDbVertex
100
AcDb2dVertex
 10
-2416.517
 20
5538.072
 30
0.0
 70
0
  0
SEQEND
  5
269
330
268
100
AcDbEntity
  8
0
  0
TEXT
  5
26D
330
17
100
AcDbEntity
  8
0
 62
210
100
AcDbText
 10
-2416.517
 20
5555.572
 30
0.0
 40
25.0
  1
20.00
 72
2
 11
-2416.517
 21
5555.572
 31
0.0
100
AcDbText
 73
2
  0
POLYLINE
  5
26E
330
17
100
AcDbEntity
  8
0
 62
210
100
AcDb2dPolyline
 66
1
 10
0.0
 20
0.0
 30
0.0
 70
0
  0
VERTEX
  5
270
330
17
100
AcDbEntity
  8
0
100
AcDbVertex
100
AcDb2dVertex
 10
-4733.413
 20
7809.437
 30
0.0
 70
0
  0
VERTEX
  5
271
330
17
100
AcDbEntity
  8
0
100
AcDbVertex
100
AcDb2dVertex
 10
-4683.413
 20
7859.437
 30
0.0
 70
0
  0
VERTEX
  5
272
330
17
100
AcDbEntity
  8
0
100
AcDbVertex
100
AcDb2dVertex
 10
-4483.413
 20
7859.437
 30
0.0
 70
0
  0
SEQEND
  5
26F
330
26E
100
AcDbEntity
  8
0
  0
TEXT
  5
273
330
17
100
AcDbEntity
  8
0
 62
210
100
AcDbText
 10
-4483.413
 20
7876.937
 30
0.0
 40
25.0
  1
70.00
 72
2
 11
-4483.413
 21
7876.937
 31
0.0
100
AcDbText
 73
2
  0
POLYLINE
  5
274
330
17
100
AcDbEntity
  8
0
 62
210
100
AcDb2dPolyline
 66
1
 10
0.0
 20
0.0
 30
0.0
 70
0
  0
VERTEX
  5
276
330
17
100
AcDbEntity
  8
0
100
AcDbVertex
100
AcDb2dVertex
 10
-5092.92
 20
7053.738
 30
0.0
 70
0
  0
VERTEX
  5
277
330
17
100
AcDbEntity
  8
0
100
AcDbVertex
100
AcDb2dVertex
 10
-5042.92
 20
7103.738
 30
0.0
 70
0
  0
VERTEX
  5
278
330
17
100
AcDbEntity
  8
0
100
AcDbVertex
100
AcDb2dVertex
 10
-4842.92
 20
7103.738
 30
0.0
 70
0
  0
SEQEND
  5
275
330
274
100
AcDbEntity
  8
0
  0
TEXT
  5
279
330
17
100
AcDbEntity
  8
0
 62
210
100
AcDbText
 10
-4842.92
 20
7121.238
 30
0.0
 40
25.0
  1
60.00
 72
2
 11
-4842.92
 21
7121.238
 31
0.0
100
AcDbText
 73
2
  0
POLYLINE
  5
27A
330
17
100
AcDbEntity
  8
0
 62
210
100
AcDb2dPolyline
 66
1
 10
0.0
 20
0.0
 30
0.0
 70
0
  0
VERTEX
  5
27C
330
17
100
AcDbEntity
  8
0
100
AcDbVertex
100
AcDb2dVertex
 10
-5555.144
 20
6415.429
 30
0.0
 70
0
  0
VERTEX
  5
27D
330
17
100
AcDbEntity
  8
0
100
AcDbVertex
100
AcDb2dVertex
 10
-5505.144
 20
6465.429
 30
0.0
 70
0
  0
VERTEX
  5
27E
330
17
100
AcDbEntity
  8
0
100
AcDbVertex
100
AcDb2dVertex
 10
-5305.144
 20
6465.429
 30
0.0
 70
0
  0
SEQEND
  5
27B
330
27A
100
AcDbEntity
  8
0
  0
TEXT
  5
27F
330
17
100
AcDbEntity
  8
0
 62
210
100
AcDbText
 10
-5305.144
 20
6482.929
 30
0.0
 40
25.0
  1
40.00
 72
2
 11
-5305.144
 21
6482.929
 31
0.0
100
AcDbText
 73
2
  0
POLYLINE
  5
280
330
17
100
AcDbEntity
  8
0
 62
210
100
AcDb2dPolyline
 66
1
 10
0.0
 20
0.0
 30
0.0
 70
0
  0
VERTEX
  5
282
330
17
100
AcDbEntity
  8
0
100
AcDbVertex
100
AcDb2dVertex
 10
-4447.274
 20
6525.482
 30
0.0
 70
0
  0
VERTEX
  5
283
330
17
100
AcDbEntity
  8
0
100
AcDbVertex
100
AcDb2dVertex
 10
-4397.274
 20
6575.482
 30
0.0
 70
0
  0
VERTEX
  5
284
330
17
100
AcDbEntity
  8
0
100
AcDbVertex
100
AcDb2dVertex
 10
-4197.274
 20
6575.482
 30
0.0
 70
0
  0
SEQEND
  5
281
330
280
100
AcDbEntity
  8
0
  0
TEXT
  5
285
330
17
100
AcDbEntity
  8
0
 62
210
100
AcDbText
 10
-4197.274
 20
6592.982
 30
0.0
 40
25.0
  1
55.00
 72
2
 11
-4197.274
 21
6592.982
 31
0.0
100
AcDbText
 73
2
  0
POLYLINE
  5
286
330
17
100
AcDbEntity
  8
0
 62
210
100
AcDb2dPolyline
 66
1
 10
0.0
 20
0.0
 30
0.0
 70
0
  0
VERTEX
  5
288
330
17
100
AcDbEntity
  8
0
100
AcDbVertex
100
AcDb2dVertex
 10
-4586.675
 20
5549.676
 30
0.0
 70
0
  0
VERTEX
  5
289
330
17
100
AcDbEntity
  8
0
100
AcDbVertex
100
AcDb2dVertex
 10
-4536.675
 20
5599.676
 30
0.0
 70
0
  0
VERTEX
  5
28A
330
17
100
AcDbEntity
  8
0
100
AcDbVertex
100
AcDb2dVertex
 10
-4336.675
 20
5599.676
 30
0.0
 70
0
  0
SEQEND
  5
287
330
286
100
AcDbEntity
  8
0
  0
TEXT
  5
28B
330
17
100
AcDbEntity
  8
0
 62
210
100
AcDbText
 10
-4336.675
 20
5617.176
 30
0.0
 40
25.0
  1
30.00
 72
2
 11
-4336.675
 21
5617.176
 31
0.0
100
AcDbText
 73
2
  0
POLYLINE
  5
28C
330
17
100
AcDbEntity
  8
0
 62
210
100
AcDb2dPolyline
 66
1
 10
0.0
 20
0.0
 30
0.0
 70
0
  0
VERTEX
  5
28E
330
17
100
AcDbEntity
  8
0
100
AcDbVertex
100
AcDb2dVertex
 10
-4924.172
 20
5058.104
 30
0.0
 70
0
  0
VERTEX
  5
28F
330
17
100
AcDbEntity
  8
0
100
AcDbVertex
100
AcDb2dVertex
 10
-4874.172
 20
5108.104
 30
0.0
 70
0
  0
VERTEX
  5
290
330
17
100
AcDbEntity
  8
0
100
AcDbVertex
100
AcDb2dVertex
 10
-4674.172
 20
5108.104
 30
0.0
 70
0
  0
SEQEND
  5
28D
330
28C
100
AcDbEntity
  8
0
  0
TEXT
  5
291
330
17
100
AcDbEntity
  8
0
 62
210
100
AcDbText
 10
-4674.172
 20
5125.604
 30
0.0
 40
25.0
  1
25.00
 72
2
 11
-4674.172
 21
5125.604
 31
0.0
100
AcDbText
 73
2
  0
POLYLINE
  5
292
330
17
100
AcDbEntity
  8
0
 62
210
100
AcDb2dPolyline
 66
1
 10
0.0
 20
0.0
 30
0.0
 70
0
  0
VERTEX
  5
294
330
17
100
AcDbEntity
  8
0
100
AcDbVertex
100
AcDb2dVertex
 10
-3116.05
 20
8728.736
 30
0.0
 70
0
  0
VERTEX
  5
295
330
17
100
AcDbEntity
  8
0
100
AcDbVertex
100
AcDb2dVertex
 10
-3066.05
 20
8778.736
 30
0.0
 70
0
  0
VERTEX
  5
296
330
17
100
AcDbEntity
  8
0
100
AcDbVertex
100
AcDb2dVertex
 10
-2866.05
 20
8778.736
 30
0.0
 70
0
  0
SEQEND
  5
293
330
292
100
AcDbEntity
  8
0
  0
TEXT
  5
297
330
17
100
AcDbEntity
  8
0
 62
210
100
AcDbText
 10
-2866.05
 20
8796.236
 30
0.0
 40
25.0
  1
24.00
 72
2
 11
-2866.05
 21
8796.236
 31
0.0
100
AcDbText
 73
2
  0
POLYLINE
  5
298
330
17
100
AcDbEntity
  8
0
 62
210
100
AcDb2dPolyline
 66
1
 10
0.0
 20
0.0
 30
0.0
 70
0
  0
VERTEX
  5
29A
330
17
100
AcDbEntity
  8
0
100
AcDbVertex
100
AcDb2dVertex
 10
-3622.295
 20
8141.785
 30
0.0
 70
0
  0
VERTEX
  5
29B
330
17
100
AcDbEntity
  8
0
100
AcDbVertex
100
AcDb2dVertex
 10
-3572.295
 20
8191.785
 30
0.0
 70
0
  0
VERTEX
  5
29C
330
17
100
AcDbEntity
  8
0
100
AcDbVertex
100
AcDb2dVertex
 10
-3372.295
 20
8191.785
 30
0.0
 70
0
  0
SEQEND
  5
299
330
298
100
AcDbEntity
  8
0
  0
TEXT
  5
29D
330
17
100
AcDbEntity
  8
0
 62
210
100
AcDbText
 10
-3372.295
 20
8209.285
 30
0.0
 40
25.0
  1
36.00
 72
2
 11
-3372.295
 21
8209.285
 31
0.0
100
AcDbText
 73
2
  0
POLYLINE
  5
29E
330
17
100
AcDbEntity
  8
0
 62
210
100
AcDb2dPolyline
 66
1
 10
0.0
 20
0.0
 30
0.0
 70
0
  0
VERTEX
  5
2A0
330
17
100
AcDbEntity
  8
0
100
AcDbVertex
100
AcDb2dVertex
 10
-4040.498
 20
7246.684
 30
0.0
 70
0
  0
VERTEX
  5
2A1
330
17
100
AcDbEntity
  8
0
100
AcDbVertex
100
AcDb2dVertex
 10
-3990.498
 20
7296.684
 30
0.0
 70
0
  0
VERTEX
  5
2A2
330
17
100
AcDbEntity
  8
0
100
AcDbVertex
100
AcDb2dVertex
 10
-3790.498
 20
7296.684
 30
0.0
 70
0
  0
SEQEND
  5
29F
330
29E
100
AcDbEntity
  8
0
  0
TEXT
  5
2A3
330
17
100
AcDbEntity
  8
0
 62
210
100
AcDbText
 10
-3790.498
 20
7314.184
 30
0.0
 40
25.0
  1
47.00
 72
2
 11
-3790.498
 21
7314.184
 31
0.0
100
AcDbText
 73
2
  0
POLYLINE
  5
2A4
330
17
100
AcDbEntity
  8
0
 62
210
100
AcDb2dPolyline
 66
1
 10
0.0
 20
0.0
 30
0.0
 70
0
  0
VERTEX
  5
2A6
330
17
100
AcDbEntity
  8
0
100
AcDbVertex
100
AcDb2dVertex
 10
-2554.357
 20
7479.277
 30
0.0
 70
0
  0
VERTEX
  5
2A7
330
17
100
AcDbEntity
  8
0
100
AcDbVertex
100
AcDb2dVertex
 10
-2504.357
 20
7529.277
 30
0.0
 70
0
  0
VERTEX
  5
2A8
330
17
100
AcDbEntity
  8
0
100
AcDbVertex
100
AcDb2dVertex
 10
-2304.357
 20
7529.277
 30
0.0
 70
0
  0
SEQEND
  5
2A5
330
2A4
100
AcDbEntity
  8
0
  0
TEXT
  5
2A9
330
17
100
AcDbEntity
  8
0
 62
210
100
AcDbText
 10
-2304.357
 20
7546.777
 30
0.0
 40
25.0
  1
0.00
 72
2
 11
-2304.357
 21
7546.777
 31
0.0
100
AcDbText
 73
2
  0
POLYLINE
  5
2AA
330
17
100
AcDbEntity
  8
0
 62
210
100
AcDb2dPolyline
 66
1
 10
0.0
 20
0.0
 30
0.0
 70
0
  0
VERTEX
  5
2AC
330
17
100
AcDbEntity
  8
0
100
AcDbVertex
100
AcDb2dVertex
 10
-1439.15
 20
7926.828
 30
0.0
 70
0
  0
VERTEX
  5
2AD
330
17
100
AcDbEntity
  8
0
100
AcDbVertex
100
AcDb2dVertex
 10
-1389.15
 20
7976.828
 30
0.0
 70
0
  0
VERTEX
  5
2AE
330
17
100
AcDbEntity
  8
0
100
AcDbVertex
100
AcDb2dVertex
 10
-1189.15
 20
7976.828
 30
0.0
 70
0
  0
SEQEND
  5
2AB
330
2AA
100
AcDbEntity
  8
0
  0
TEXT
  5
2AF
330
17
100
AcDbEntity
  8
0
 62
210
100
AcDbText
 10
-1189.15
 20
7994.328
 30
0.0
 40
25.0
  1
90.00
 72
2
 11
-1189.15
 21
7994.328
 31
0.0
100
AcDbText
 73
2
  0
POLYLINE
  5
2B0
330
17
100
AcDbEntity
  8
0
 62
210
100
AcDb2dPolyline
 66
1
 10
0.0
 20
0.0
 30
0.0
 70
0
  0
VERTEX
  5
2B2
330
17
100
AcDbEntity
  8
0
100
AcDbVertex
100
AcDb2dVertex
 10
-1079.643
 20
8396.388
 30
0.0
 70
0
  0
VERTEX
  5
2B3
330
17
100
AcDbEntity
  8
0
100
AcDbVertex
100
AcDb2dVertex
 10
-1029.643
 20
8446.388
 30
0.0
 70
0
  0
VERTEX
  5
2B4
330
17
100
AcDbEntity
  8
0
100
AcDbVertex
100
AcDb2dVertex
 10
-829.643
 20
8446.388
 30
0.0
 70
0
  0
SEQEND
  5
2B1
330
2B0
100
AcDbEntity
  8
0
  0
TEXT
  5
2B5
330
17
100
AcDbEntity
  8
0
 62
210
100
AcDbText
 10
-829.643
 20
8463.888
 30
0.0
 40
25.0
  1
70.00
 72
2
 11
-829.643
 21
8463.888
 31
0.0
100
AcDbText
 73
2
  0
POLYLINE
  5
2B6
330
17
100
AcDbEntity
  8
0
 62
210
100
AcDb2dPolyline
 66
1
 10
0.0
 20
0.0
 30
0.0
 70
0
  0
VERTEX
  5
2B8
330
17
100
AcDbEntity
  8
0
100
AcDbVertex
100
AcDb2dVertex
 10
-1788.073
 20
8970.853
 30
0.0
 70
0
  0
VERTEX
  5
2B9
330
17
100
AcDbEntity
  8
0
100
AcDbVertex
100
AcDb2dVertex
 10
-1738.073
 20
9020.853
 30
0.0
 70
0
  0
VERTEX
  5
2BA
330
17
100
AcDbEntity
  8
0
100
AcDbVertex
100
AcDb2dVertex
 10
-1538.073
 20
9020.853
 30
0.0
 70
0
  0
SEQEND
  5
2B7
330
2B6
100
AcDbEntity
  8
0
  0
TEXT
  5
2BB
330
17
100
AcDbEntity
  8
0
 62
210
100
AcDbText
 10
-1538.073
 20
9038.353
 30
0.0
 40
25.0
  1
46.00
 72
2
 11
-1538.073
 21
9038.353
 31
0.0
100
AcDbText
 73
2
  0
POLYLINE
  5
2BC
330
17
100
AcDbEntity
  8
0
 62
210
100
AcDb2dPolyline
 66
1
 10
0.0
 20
0.0
 30
0.0
 70
0
  0
VERTEX
  5
2BE
330
17
100
AcDbEntity
  8
0
100
AcDbVertex
100
AcDb2dVertex
 10
-4554.08
 20
8846.126
 30
0.0
 70
0
  0
VERTEX
  5
2BF
330
17
100
AcDbEntity
  8
0
100
AcDbVertex
100
AcDb2dVertex
 10
-4504.08
 20
8896.126
 30
0.0
 70
0
  0
VERTEX
  5
2C0
330
17
100
AcDbEntity
  8
0
100
AcDbVertex
100
AcDb2dVertex
 10
-4304.08
 20
8896.126
 30
0.0
 70
0
  0
SEQEND
  5
2BD
330
2BC
100
AcDbEntity
  8
0
  0
TEXT
  5
2C1
330
17
100
AcDbEntity
  8
0
 62
210
100
AcDbText
 10
-4304.08
 20
8913.626
 30
0.0
 40
25.0
  1
46.00
 72
2
 11
-4304.08
 21
8913.626
 31
0.0
100
AcDbText
 73
2
  0
POLYLINE
  5
2C2
330
17
100
AcDbEntity
  8
0
 62
210
100
AcDb2dPolyline
 66
1
 10
0.0
 20
0.0
 30
0.0
 70
0
  0
VERTEX
  5
2C4
330
17
100
AcDbEntity
  8
0
100
AcDbVertex
100
AcDb2dVertex
 10
-4021.735
 20
5813.804
 30
0.0
 70
0
  0
VERTEX
  5
2C5
330
17
100
AcDbEntity
  8
0
100
AcDbVertex
100
AcDb2dVertex
 10
-3971.735
 20
5863.804
 30
0.0
 70
0
  0
VERTEX
  5
2C6
330
17
100
AcDbEntity
  8
0
100
AcDbVertex
100
AcDb2dVertex
 10
-3771.735
 20
5863.804
 30
0.0
 70
0
  0
SEQEND
  5
2C3
330
2C2
100
AcDbEntity
  8
0
  0
TEXT
  5
2C7
330
17
100
AcDbEntity
  8
0
 62
210
100
AcDbText
 10
-3771.735
 20
5881.304
 30
0.0
 40
25.0
  1
5.00
 72
2
 11
-3771.735
 21
5881.304
 31
0.0
100
AcDbText
 73
2
  0
POLYLINE
  5
2C8
330
17
100
AcDbEntity
  8
0
 62
210
100
AcDb2dPolyline
 66
1
 10
0.0
 20
0.0
 30
0.0
 70
0
  0
VERTEX
  5
2CA
330
17
100
AcDbEntity
  8
0
100
AcDbVertex
100
AcDb2dVertex
 10
-3706.249
 20
5997.226
 30
0.0
 70
0
  0
VERTEX
  5
2CB
330
17
100
AcDbEntity
  8
0
100
AcDbVertex
100
AcDb2dVertex
 10
-3656.249
 20
6047.226
 30
0.0
 70
0
  0
VERTEX
  5
2CC
330
17
100
AcDbEntity
  8
0
100
AcDbVertex
100
AcDb2dVertex
 10
-3456.249
 20
6047.226
 30
0.0
 70
0
  0
SEQEND
  5
2C9
330
2C8
100
AcDbEntity
  8
0
  0
TEXT
  5
2CD
330
17
100
AcDbEntity
  8
0
 62
210
100
AcDbText
 10
-3456.249
 20
6064.726
 30
0.0
 40
25.0
  1
8.00
 72
2
 11
-3456.249
 21
6064.726
 31
0.0
100
AcDbText
 73
2
  0
POLYLINE
  5
2CE
330
17
100
AcDbEntity
  8
0
 62
210
100
AcDb2dPolyline
 66
1
 10
0.0
 20
0.0
 30
0.0
 70
0
  0
VERTEX
  5
2D0
330
17
100
AcDbEntity
  8
0
100
AcDbVertex
100
AcDb2dVertex
 10
-3354.078
 20
6261.354
 30
0.0
 70
0
  0
VERTEX
  5
2D1
330
17
100
AcDbEntity
  8
0
100
AcDbVertex
100
AcDb2dVertex
 10
-3304.078
 20
6311.354
 30
0.0
 70
0
  0
VERTEX
  5
2D2
330
17
100
AcDbEntity
  8
0
100
AcDbVertex
100
AcDb2dVertex
 10
-3104.078
 20
6311.354
 30
0.0
 70
0
  0
SEQEND
  5
2CF
330
2CE
100
AcDbEntity
  8
0
  0
TEXT
  5
2D3
330
17
100
AcDbEntity
  8
0
 62
210
100
AcDbText
 10
-3104.078
 20
6328.854
 30
0.0
 40
25.0
  1
54.00
 72
2
 11
-3104.078
 21
6328.854
 31
0.0
100
AcDbText
 73
2
  0
POLYLINE
  5
2D4
330
17
100
AcDbEntity
  8
0
 62
210
100
AcDb2dPolyline
 66
1
 10
0.0
 20
0.0
 30
0.0
 70
0
  0
VERTEX
  5
2D6
330
17
100
AcDbEntity
  8
0
100
AcDbVertex
100
AcDb2dVertex
 10
-3867.66
 20
4573.87
 30
0.0
 70
0
  0
VERTEX
  5
2D7
330
17
100
AcDbEntity
  8
0
100
AcDbVertex
100
AcDb2dVertex
 10
-3817.66
 20
4623.87
 30
0.0
 70
0
  0
VERTEX
  5
2D8
330
17
100
AcDbEntity
  8
0
100
AcDbVertex
100
AcDb2dVertex
 10
-3617.66
 20
4623.87
 30
0.0
 70
0
  0
SEQEND
  5
2D5
330
2D4
100
AcDbEntity
  8
0
  0
TEXT
  5
2D9
330
17
100
AcDbEntity
  8
0
 62
210
100
AcDbText
 10
-3617.66
 20
4641.37
 30
0.0
 40
25.0
  1
0.00
 72
2
 11
-3617.66
 21
4641.37
 31
0.0
100
AcDbText
 73
2
  0
POLYLINE
  5
2DA
330
17
100
AcDbEntity
  8
0
 62
210
100
AcDb2dPolyline
 66
1
 10
0.0
 20
0.0
 30
0.0
 70
0
  0
VERTEX
  5
2DC
330
17
100
AcDbEntity
  8
0
100
AcDbVertex
100
AcDb2dVertex
 10
-3442.121
 20
4860.008
 30
0.0
 70
0
  0
VERTEX
  5
2DD
330
17
100
AcDbEntity
  8
0
100
AcDbVertex
100
AcDb2dVertex
 10
-3392.121
 20
4910.008
 30
0.0
 70
0
  0
VERTEX
  5
2DE
330
17
100
AcDbEntity
  8
0
100
AcDbVertex
100
AcDb2dVertex
 10
-3192.121
 20
4910.008
 30
0.0
 70
0
  0
SEQEND
  5
2DB
330
2DA
100
AcDbEntity
  8
0
  0
TEXT
  5
2DF
330
17
100
AcDbEntity
  8
0
 62
210
100
AcDbText
 10
-3192.121
 20
4927.508
 30
0.0
 40
25.0
  1
50.00
 72
2
 11
-3192.121
 21
4927.508
 31
0.0
100
AcDbText
 73
2
  0
POLYLINE
  5
2E0
330
17
100
AcDbEntity
  8
0
 62
210
100
AcDb2dPolyline
 66
1
 10
0.0
 20
0.0
 30
0.0
 70
0
  0
VERTEX
  5
2E2
330
17
100
AcDbEntity
  8
0
100
AcDbVertex
100
AcDb2dVertex
 10
-2759.79
 20
4874.682
 30
0.0
 70
0
  0
VERTEX
  5
2E3
330
17
100
AcDbEntity
  8
0
100
AcDbVertex
100
AcDb2dVertex
 10
-2709.79
 20
4924.682
 30
0.0
 70
0
  0
VERTEX
  5
2E4
330
17
100
AcDbEntity
  8
0
100
AcDbVertex
100
AcDb2dVertex
 10
-2509.79
 20
4924.682
 30
0.0
 70
0
  0
SEQEND
  5
2E1
330
2E0
100
AcDbEntity
  8
0
  0
TEXT
  5
2E5
330
17
100
AcDbEntity
  8
0
 62
210
100
AcDbText
 10
-2509.79
 20
4942.182
 30
0.0
 40
25.0
  1
50.00
 72
2
 11
-2509.79
 21
4942.182
 31
0.0
100
AcDbText
 73
2
  0
POLYLINE
  5
2E6
330
17
100
AcDbEntity
  8
0
 62
210
100
AcDb2dPolyline
 66
1
 10
0.0
 20
0.0
 30
0.0
 70
0
  0
VERTEX
  5
2E8
330
17
100
AcDbEntity
  8
0
100
AcDbVertex
100
AcDb2dVertex
 10
-1908.711
 20
5146.147
 30
0.0
 70
0
  0
VERTEX
  5
2E9
330
17
100
AcDbEntity
  8
0
100
AcDbVertex
100
AcDb2dVertex
 10
-1858.711
 20
5196.147
 30
0.0
 70
0
  0
VERTEX
  5
2EA
330
17
100
AcDbEntity
  8
0
100
AcDbVertex
100
AcDb2dVertex
 10
-1658.711
 20
5196.147
 30
0.0
 70
0
  0
SEQEND
  5
2E7
330
2E6
100
AcDbEntity
  8
0
  0
TEXT
  5
2EB
330
17
100
AcDbEntity
  8
0
 62
210
100
AcDbText
 10
-1658.711
 20
5213.647
 30
0.0
 40
25.0
  1
60.00
 72
2
 11
-1658.711
 21
5213.647
 31
0.0
100
AcDbText
 73
2
  0
TEXT
  5
2EC
330
17
100
AcDbEntity
  8
0
 62
210
100
AcDbText
 10
-312.37199999999996
 20
7339.985
 30
0.0
 40
25.0
  1
60.39
 72
2
 11
-312.37199999999996
 21
7339.985
 31
0.0
100
AcDbText
 73
2
  0
TEXT
  5
2ED
330
17
100
AcDbEntity
  8
0
 62
210
100
AcDbText
 10
-312.37199999999996
 20
7264.985
 30
0.0
 40
25.0
  1
40.39
 72
2
 11
-312.37199999999996
 21
7264.985
 31
0.0
100
AcDbText
 73
2
  0
TEXT
  5
2EE
330
17
100
AcDbEntity
  8
0
 62
210
100
AcDbText
 10
3020.962
 20
4784.919
 30
0.0
 40
25.0
  1
60.32
 72
2
 11
3020.962
 21
4784.919
 31
0.0
100
AcDbText
 73
2
  0
TEXT
  5
2EF
330
17
100
AcDbEntity
  8
0
 62
210
100
AcDbText
 10
3020.962
 20
4709.919
 30
0.0
 40
25.0
  1
25.32
 72
2
 11
3020.962
 21
4709.919
 31
0.0
100
AcDbText
 73
2
  0
TEXT
  5
2F0
330
17
100
AcDbEntity
  8
0
 62
210
100
AcDbText
 10
7705.25
 20
7428.091
 30
0.0
 40
25.0
  1
55.00
 72
2
 11
7705.25
 21
7428.091
 31
0.0
100
AcDbText
 73
2
  0
TEXT
  5
2F1
330
17
100
AcDbEntity
  8
0
 62
210
100
AcDbText
 10
7705.25
 20
7353.091
 30
0.0
 40
25.0
  1
35.00
 72
2
 11
7705.25
 21
7353.091
 31
0.0
100
AcDbText
 73
2
  0
TEXT
  5
2F2
330
17
100
AcDbEntity
  8
0
 62
210
100
AcDbText
 10
2048.576
 20
8311.942
 30
0.0
 40
25.0
  1
21.24
 72
2
 11
2048.576
 21
8311.942
 31
0.0
100
AcDbText
 73
2
  0
TEXT
  5
2F3
330
17
100
AcDbEntity
  8
0
 62
210
100
AcDbText
 10
2048.576
 20
8236.942
 30
0.0
 40
25.0
  1
1.24
 72
2
 11
2048.576
 21
8236.942
 31
0.0
100
AcDbText
 73
2
  0
TEXT
  5
2F4
330
17
100
AcDbEntity
  8
0
 62
210
100
AcDbText
 10
2488.789
 20
8304.605
 30
0.0
 40
25.0
  1
126.69
 72
2
 11
2488.789
 21
8304.605
 31
0.0
100
AcDbText
 73
2
  0
TEXT
  5
2F5
330
17
100
AcDbEntity
  8
0
 62
210
100
AcDbText
 10
2488.789
 20
8229.605
 30
0.0
 40
25.0
  1
106.69
 72
2
 11
2488.789
 21
8229.605
 31
0.0
100
AcDbText
 73
2
  0
TEXT
  5
2F6
330
17
100
AcDbEntity
  8
0
 62
1
100
AcDbText
 10
-2368.231
 20
6939.944
 30
0.0
 40
25.0
  1
-234.71
 72
2
 11
-2368.231
 21
6939.944
 31
0.0
100
AcDbText
 73
2
  0
TEXT
  5
2F7
330
17
100
AcDbEntity
  8
0
 62
1
100
AcDbText
 10
-2368.231
 20
6864.944
 30
0.0
 40
25.0
  1
-294.71
 72
2
 11
-2368.231
 21
6864.944
 31
0.0
100
AcDbText
 73
2
  0
TEXT
  5
2F8
330
17
100
AcDbEntity
  8
0
 62
1
100
AcDbText
 10
-1289.708
 20
6969.292
 30
0.0
 40
25.0
  1
-218.42
 72
2
 11
-1289.708
 21
6969.292
 31
0.0
100
AcDbText
 73
2
  0
TEXT
  5
2F9
330
17
100
AcDbEntity
  8
0
 62
1
100
AcDbText
 10
-1289.708
 20
6894.292
 30
0.0
 40
25.0
  1
-298.42
 72
2
 11
-1289.708
 21
6894.292
 31
0.0
100
AcDbText
 73
2
  0
TEXT
  5
2FA
330
17
100
AcDbEntity
  8
0
 62
1
100
AcDbText
 10
-2394.522
 20
5490.429
 30
0.0
 40
25.0
  1
-196.59
 72
2
 11
-2394.522
 21
5490.429
 31
0.0
100
AcDbText
 73
2
  0
TEXT
  5
2FB
330
17
100
AcDbEntity
  8
0
 62
1
100
AcDbText
 10
-2394.522
 20
5415.429
 30
0.0
 40
25.0
  1
-216.59
 72
2
 11
-2394.522
 21
5415.429
 31
0.0
100
AcDbText
 73
2
  0
TEXT
  5
2FC
330
17
100
AcDbEntity
  8
0
 62
1
100
AcDbText
 10
-2416.517
 20
5593.072
 30
0.0
 40
25.0
  1
-97.82
 72
2
 11
-2416.517
 21
5593.072
 31
0.0
100
AcDbText
 73
2
  0
TEXT
  5
2FD
330
17
100
AcDbEntity
  8
0
 62
1
100
AcDbText
 10
-2416.517
 20
5518.072
 30
0.0
 40
25.0
  1
-117.82
 72
2
 11
-2416.517
 21
5518.072
 31
0.0
100
AcDbText
 73
2
  0
TEXT
  5
2FE
330
17
100
AcDbEntity
  8
0
 62
1
100
AcDbText
 10
-4483.413
 20
7914.437
 30
0.0
 40
25.0
  1
-20073.91
 72
2
 11
-4483.413
 21
7914.437
 31
0.0
100
AcDbText
 73
2
  0
TEXT
  5
2FF
330
17
100
AcDbEntity
  8
0
 62
1
100
AcDbText
 10
-4483.413
 20
7839.437
 30
0.0
 40
25.0
  1
-20143.91
 72
2
 11
-4483.413
 21
7839.437
 31
0.0
100
AcDbText
 73
2
  0
TEXT
  5
300
330
17
100
AcDbEntity
  8
0
 62
1
100
AcDbText
 10
-4842.92
 20
7158.738
 30
0.0
 40
25.0
  1
-20072.99
 72
2
 11
-4842.92
 21
7158.738
 31
0.0
100
AcDbText
 73
2
  0
TEXT
  5
301
330
17
100
AcDbEntity
  8
0
 62
1
100
AcDbText
 10
-4842.92
 20
7083.738
 30
0.0
 40
25.0
  1
-20132.99
 72
2
 11
-4842.92
 21
7083.738
 31
0.0
100
AcDbText
 73
2
  0
TEXT
  5
302
330
17
100
AcDbEntity
  8
0
 62
1
100
AcDbText
 10
-5305.144
 20
6520.429
 30
0.0
 40
25.0
  1
-18359.20
 72
2
 11
-5305.144
 21
6520.429
 31
0.0
100
AcDbText
 73
2
  0
TEXT
  5
303
330
17
100
AcDbEntity
  8
0
 62
1
100
AcDbText
 10
-5305.144
 20
6445.429
 30
0.0
 40
25.0
  1
-18399.20
 72
2
 11
-5305.144
 21
6445.429
 31
0.0
100
AcDbText
 73
2
  0
TEXT
  5
304
330
17
100
AcDbEntity
  8
0
 62
1
100
AcDbText
 10
-4197.274
 20
6630.482
 30
0.0
 40
25.0
  1
-20053.74
 72
2
 11
-4197.274
 21
6630.482
 31
0.0
100
AcDbText
 73
2
  0
TEXT
  5
305
330
17
100
AcDbEntity
  8
0
 62
1
100
AcDbText
 10
-4197.274
 20
6555.482
 30
0.0
 40
25.0
  1
-20108.74
 72
2
 11
-4197.274
 21
6555.482
 31
0.0
100
AcDbText
 73
2
  0
TEXT
  5
306
330
17
100
AcDbEntity
  8
0
 62
1
100
AcDbText
 10
-4336.675
 20
5654.676
 30
0.0
 40
25.0
  1
-3519.13
 72
2
 11
-4336.675
 21
5654.676
 31
0.0
100
AcDbText
 73
2
  0
TEXT
  5
307
330
17
100
AcDbEntity
  8
0
 62
1
100
AcDbText
 10
-4336.675
 20
5579.676
 30
0.0
 40
25.0
  1
-3549.13
 72
2
 11
-4336.675
 21
5579.676
 31
0.0
100
AcDbText
 73
2
  0
TEXT
  5
308
330
17
100
AcDbEntity
  8
0
 62
1
100
AcDbText
 10
-4674.172
 20
5163.104
 30
0.0
 40
25.0
  1
-2094.04
 72
2
 11
-4674.172
 21
5163.104
 31
0.0
100
AcDbText
 73
2
  0
TEXT
  5
309
330
17
100
AcDbEntity
  8
0
 62
1
100
AcDbText
 10
-4674.172
 20
5088.104
 30
0.0
 40
25.0
  1
-2119.04
 72
2
 11
-4674.172
 21
5088.104
 31
0.0
100
AcDbText
 73
2
  0
TEXT
  5
30A
330
17
100
AcDbEntity
  8
0
 62
1
100
AcDbText
 10
-2866.05
 20
8833.736
 30
0.0
 40
25.0
  1
-14602.91
 72
2
 11
-2866.05
 21
8833.736
 31
0.0
100
AcDbText
 73
2
  0
TEXT
  5
30B
330
17
100
AcDbEntity
  8
0
 62
1
100
AcDbText
 10
-2866.05
 20
8758.736
 30
0.0
 40
25.0
  1
-14626.91
 72
2
 11
-2866.05
 21
8758.736
 31
0.0
100
AcDbText
 73
2
  0
TEXT
  5
30C
330
17
100
AcDbEntity
  8
0
 62
1
100
AcDbText
 10
-3372.295
 20
8246.785
 30
0.0
 40
25.0
  1
-15046.83
 72
2
 11
-3372.295
 21
8246.785
 31
0.0
100
AcDbText
 73
2
  0
TEXT
  5
30D
330
17
100
AcDbEntity
  8
0
 62
1
100
AcDbText
 10
-3372.295
 20
8171.785
 30
0.0
 40
25.0
  1
-15082.83
 72
2
 11
-3372.295
 21
8171.785
 31
0.0
100
AcDbText
 73
2
  0
TEXT
  5
30E
330
17
100
AcDbEntity
  8
0
 62
1
100
AcDbText
 10
-3790.498
 20
7351.684
 30
0.0
 40
25.0
  1
-20589.58
 72
2
 11
-3790.498
 21
7351.684
 31
0.0
100
AcDbText
 73
2
  0
TEXT
  5
30F
330
17
100
AcDbEntity
  8
0
 62
1
100
AcDbText
 10
-3790.498
 20
7276.684
 30
0.0
 40
25.0
  1
-20636.58
 72
2
 11
-3790.498
 21
7276.684
 31
0.0
100
AcDbText
 73
2
  0
TEXT
  5
310
330
17
100
AcDbEntity
  8
0
 62
1
100
AcDbText
 10
-2304.357
 20
7584.277
 30
0.0
 40
25.0
  1
-14602.91
 72
2
 11
-2304.357
 21
7584.277
 31
0.0
100
AcDbText
 73
2
  0
TEXT
  5
311
330
17
100
AcDbEntity
  8
0
 62
1
100
AcDbText
 10
-2304.357
 20
7509.277
 30
0.0
 40
25.0
  1
-14602.91
 72
2
 11
-2304.357
 21
7509.277
 31
0.0
100
AcDbText
 73
2
  0
TEXT
  5
312
330
17
100
AcDbEntity
  8
0
 62
1
100
AcDbText
 10
-1189.15
 20
8031.828
 30
0.0
 40
25.0
  1
-16097.35
 72
2
 11
-1189.15
 21
8031.828
 31
0.0
100
AcDbText
 73
2
  0
TEXT
  5
313
330
17
100
AcDbEntity
  8
0
 62
1
100
AcDbText
 10
-1189.15
 20
7956.828
 30
0.0
 40
25.0
  1
-16187.35
 72
2
 11
-1189.15
 21
7956.828
 31
0.0
100
AcDbText
 73
2
  0
TEXT
  5
314
330
17
100
AcDbEntity
  8
0
 62
1
100
AcDbText
 10
-829.643
 20
8501.388
 30
0.0
 40
25.0
  1
-16090.83
 72
2
 11
-829.643
 21
8501.388
 31
0.0
100
AcDbText
 73
2
  0
TEXT
  5
315
330
17
100
AcDbEntity
  8
0
 62
1
100
AcDbText
 10
-829.643
 20
8426.388
 30
0.0
 40
25.0
  1
-16160.83
 72
2
 11
-829.643
 21
8426.388
 31
0.0
100
AcDbText
 73
2
  0
TEXT
  5
316
330
17
100
AcDbEntity
  8
0
 62
1
100
AcDbText
 10
-1538.073
 20
9075.853
 30
0.0
 40
25.0
  1
-15573.89
 72
2
 11
-1538.073
 21
9075.853
 31
0.0
100
AcDbText
 73
2
  0
TEXT
  5
317
330
17
100
AcDbEntity
  8
0
 62
1
100
AcDbText
 10
-1538.073
 20
9000.853
 30
0.0
 40
25.0
  1
-15619.89
 72
2
 11
-1538.073
 21
9000.853
 31
0.0
100
AcDbText
 73
2
  0
TEXT
  5
318
330
17
100
AcDbEntity
  8
0
 62
1
100
AcDbText
 10
-4304.08
 20
8951.126
 30
0.0
 40
25.0
  1
-11144.36
 72
2
 11
-4304.08
 21
8951.126
 31
0.0
100
AcDbText
 73
2
  0
TEXT
  5
319
330
17
100
AcDbEntity
  8
0
 62
1
100
AcDbText
 10
-4304.08
 20
8876.126
 30
0.0
 40
25.0
  1
-11190.36
 72
2
 11
-4304.08
 21
8876.126
 31
0.0
100
AcDbText
 73
2
  0
TEXT
  5
31A
330
17
100
AcDbEntity
  8
0
 62
1
100
AcDbText
 10
-3771.735
 20
5918.804
 30
0.0
 40
25.0
  1
-20126.70
 72
2
 11
-3771.735
 21
5918.804
 31
0.0
100
AcDbText
 73
2
  0
TEXT
  5
31B
330
17
100
AcDbEntity
  8
0
 62
1
100
AcDbText
 10
-3771.735
 20
5843.804
 30
0.0
 40
25.0
  1
-20131.70
 72
2
 11
-3771.735
 21
5843.804
 31
0.0
100
AcDbText
 73
2
  0
TEXT
  5
31C
330
17
100
AcDbEntity
  8
0
 62
1
100
AcDbText
 10
-3456.249
 20
6102.226
 30
0.0
 40
25.0
  1
-21000.34
 72
2
 11
-3456.249
 21
6102.226
 31
0.0
100
AcDbText
 73
2
  0
TEXT
  5
31D
330
17
100
AcDbEntity
  8
0
 62
1
100
AcDbText
 10
-3456.249
 20
6027.226
 30
0.0
 40
25.0
  1
-21008.34
 72
2
 11
-3456.249
 21
6027.226
 31
0.0
100
AcDbText
 73
2
  0
TEXT
  5
31E
330
17
100
AcDbEntity
  8
0
 62
1
100
AcDbText
 10
-3104.078
 20
6366.354
 30
0.0
 40
25.0
  1
-20827.70
 72
2
 11
-3104.078
 21
6366.354
 31
0.0
100
AcDbText
 73
2
  0
TEXT
  5
31F
330
17
100
AcDbEntity
  8
0
 62
1
100
AcDbText
 10
-3104.078
 20
6291.354
 30
0.0
 40
25.0
  1
-20881.70
 72
2
 11
-3104.078
 21
6291.354
 31
0.0
100
AcDbText
 73
2
  0
TEXT
  5
320
330
17
100
AcDbEntity
  8
0
 62
1
100
AcDbText
 10
-3617.66
 20
4678.87
 30
0.0
 40
25.0
  1
-3519.13
 72
2
 11
-3617.66
 21
4678.87
 31
0.0
100
AcDbText
 73
2
  0
TEXT
  5
321
330
17
100
AcDbEntity
  8
0
 62
1
100
AcDbText
 10
-3617.66
 20
4603.87
 30
0.0
 40
25.0
  1
-3519.13
 72
2
 11
-3617.66
 21
4603.87
 31
0.0
100
AcDbText
 73
2
  0
TEXT
  5
322
330
17
100
AcDbEntity
  8
0
 62
1
100
AcDbText
 10
-3192.121
 20
4965.008
 30
0.0
 40
25.0
  1
-20158.52
 72
2
 11
-3192.121
 21
4965.008
 31
0.0
100
AcDbText
 73
2
  0
TEXT
  5
323
330
17
100
AcDbEntity
  8
0
 62
1
100
AcDbText
 10
-3192.121
 20
4890.008
 30
0.0
 40
25.0
  1
-20208.52
 72
2
 11
-3192.121
 21
4890.008
 31
0.0
100
AcDbText
 73
2
  0
TEXT
  5
324
330
17
100
AcDbEntity
  8
0
 62
1
100
AcDbText
 10
-2509.79
 20
4979.682
 30
0.0
 40
25.0
  1
-21417.33
 72
2
 11
-2509.79
 21
4979.682
 31
0.0
100
AcDbText
 73
2
  0
TEXT
  5
325
330
17
100
AcDbEntity
  8
0
 62
1
100
AcDbText
 10
-2509.79
 20
4904.682
 30
0.0
 40
25.0
  1
-21467.33
 72
2
 11
-2509.79
 21
4904.682
 31
0.0
100
AcDbText
 73
2
  0
TEXT
  5
326
330
17
100
AcDbEntity
  8
0
 62
1
100
AcDbText
 10
-1658.711
 20
5251.147
 30
0.0
 40
25.0
  1
-21418.87
 72
2
 11
-1658.711
 21
5251.147
 31
0.0
100
AcDbText
 73
2
  0
TEXT
  5
327
330
17
100
AcDbEntity
  8
0
 62
1
100
AcDbText
 10
-1658.711
 20
5176.147
 30
0.0
 40
25.0
  1
-21478.87
 72
2
 11
-1658.711
 21
5176.147
 31
0.0
100
AcDbText
 73
2
  0
POLYLINE
  5
328
330
17
100
AcDbEntity
  8
0
 62
210
100
AcDb2dPolyline
 66
1
 10
0.0
 20
0.0
 30
0.0
 70
0
  0
VERTEX
  5
32A
330
17
100
AcDbEntity
  8
0
100
AcDbVertex
100
AcDb2dVertex
 10
477.936
 20
8764.546
 30
0.0
 70
0
  0
VERTEX
  5
32B
330
17
100
AcDbEntity
  8
0
100
AcDbVertex
100
AcDb2dVertex
 10
527.9359999999999
 20
8814.546
 30
0.0
 70
0
  0
VERTEX
  5
32C
330
17
100
AcDbEntity
  8
0
100
AcDbVertex
100
AcDb2dVertex
 10
727.9359999999999
 20
8814.546
 30
0.0
 70
0
  0
SEQEND
  5
329
330
328
100
AcDbEntity
  8
0
  0
TEXT
  5
32D
330
17
100
AcDbEntity
  8
0
 62
210
100
AcDbText
 10
727.9359999999999
 20
8869.546
 30
0.0
 40
25.0
  1
56.00
 72
2
 11
727.9359999999999
 21
8869.546
 31
0.0
100
AcDbText
 73
2
  0
TEXT
  5
32E
330
17
100
AcDbEntity
  8
0
 62
210
100
AcDbText
 10
727.9359999999999
 20
8832.046
 30
0.0
 40
25.0
  1
ELEV
 72
2
 11
727.9359999999999
 21
8832.046
 31
0.0
100
AcDbText
 73
2
  0
TEXT
  5
32F
330
17
100
AcDbEntity
  8
0
 62
210
100
AcDbText
 10
727.9359999999999
 20
8794.546
 30
0.0
 40
25.0
  1
Pressure
 72
2
 11
727.9359999999999
 21
8794.546
 31
0.0
100
AcDbText
 73
2
  0
POLYLINE
  5
330
330
17
100
AcDbEntity
  8
0
 62
210
100
AcDb2dPolyline
 66
1
 10
0.0
 20
0.0
 30
0.0
 70
0
  0
VERTEX
  5
332
330
17
100
AcDbEntity
  8
0
100
AcDbVertex
100
AcDb2dVertex
 10
-578.576
 20
3966.221
 30
0.0
 70
0
  0
VERTEX
  5
333
330
17
100
AcDbEntity
  8
0
100
AcDbVertex
100
AcDb2dVertex
 10
-528.576
 20
4016.221
 30
0.0
 70
0
  0
VERTEX
  5
334
330
17
100
AcDbEntity
  8
0
100
AcDbVertex
100
AcDb2dVertex
 10
-328.576
 20
4016.221
 30
0.0
 70
0
  0
SEQEND
  5
331
330
330
100
AcDbEntity
  8
0
  0
TEXT
  5
335
330
17
100
AcDbEntity
  8
0
 62
210
100
AcDbText
 10
-328.576
 20
4071.221
 30
0.0
 40
25.0
  1
62.00
 72
2
 11
-328.576
 21
4071.221
 31
0.0
100
AcDbText
 73
2
  0
TEXT
  5
336
330
17
100
AcDbEntity
  8
0
 62
210
100
AcDbText
 10
-328.576
 20
4033.721
 30
0.0
 40
25.0
  1
ELEV
 72
2
 11
-328.576
 21
4033.721
 31
0.0
100
AcDbText
 73
2
  0
TEXT
  5
337
330
17
100
AcDbEntity
  8
0
 62
210
100
AcDbText
 10
-328.576
 20
3996.221
 30
0.0
 40
25.0
  1
Pressure
 72
2
 11
-328.576
 21
3996.221
 31
0.0
100
AcDbText
 73
2
  0
POLYLINE
  5
338
330
17
100
AcDbEntity
  8
0
 62
210
100
AcDb2dPolyline
 66
1
 10
0.0
 20
0.0
 30
0.0
 70
0
  0
VERTEX
  5
33A
330
17
100
AcDbEntity
  8
0
100
AcDbVertex
100
AcDb2dVertex
 10
-1999.338
 20
5348.771
 30
0.0
 70
0
  0
VERTEX
  5
33B
330
17
100
AcDbEntity
  8
0
100
AcDbVertex
100
AcDb2dVertex
 10
-1949.338
 20
5398.771
 30
0.0
 70
0
  0
VERTEX
  5
33C
330
17
100
AcDbEntity
  8
0
100
AcDbVertex
100
AcDb2dVertex
 10
-1749.338
 20
5398.771
 30
0.0
 70
0
  0
SEQEND
  5
339
330
338
100
AcDbEntity
  8
0
  0
TEXT
  5
33D
330
17
100
AcDbEntity
  8
0
 62
210
100
AcDbText
 10
-1749.338
 20
5453.771
 30
0.0
 40
25.0
  1
20.00
 72
2
 11
-1749.338
 21
5453.771
 31
0.0
100
AcDbText
 73
2
  0
TEXT
  5
33E
330
17
100
AcDbEntity
  8
0
 62
210
100
AcDbText
 10
-1749.338
 20
5416.271
 30
0.0
 40
25.0
  1
ELEV
 72
2
 11
-1749.338
 21
5416.271
 31
0.0
100
AcDbText
 73
2
  0
TEXT
  5
33F
330
17
100
AcDbEntity
  8
0
 62
210
100
AcDbText
 10
-1749.338
 20
5378.771
 30
0.0
 40
25.0
  1
Pressure
 72
2
 11
-1749.338
 21
5378.771
 31
0.0
100
AcDbText
 73
2
  0
POLYLINE
  5
340
330
17
100
AcDbEntity
  8
0
 62
210
100
AcDb2dPolyline
 66
1
 10
0.0
 20
0.0
 30
0.0
 70
0
  0
VERTEX
  5
342
330
17
100
AcDbEntity
  8
0
100
AcDbVertex
100
AcDb2dVertex
 10
-5904.068
 20
5265.725
 30
0.0
 70
0
  0
VERTEX
  5
343
330
17
100
AcDbEntity
  8
0
100
AcDbVertex
100
AcDb2dVertex
 10
-5854.068
 20
5315.725
 30
0.0
 70
0
  0
VERTEX
  5
344
330
17
100
AcDbEntity
  8
0
100
AcDbVertex
100
AcDb2dVertex
 10
-5654.068
 20
5315.725
 30
0.0
 70
0
  0
SEQEND
  5
341
330
340
100
AcDbEntity
  8
0
  0
TEXT
  5
345
330
17
100
AcDbEntity
  8
0
 62
210
100
AcDbText
 10
-5654.068
 20
5370.725
 30
0.0
 40
25.0
  1
80.00
 72
2
 11
-5654.068
 21
5370.725
 31
0.0
100
AcDbText
 73
2
  0
TEXT
  5
346
330
17
100
AcDbEntity
  8
0
 62
210
100
AcDbText
 10
-5654.068
 20
5333.225
 30
0.0
 40
25.0
  1
ELEV
 72
2
 11
-5654.068
 21
5333.225
 31
0.0
100
AcDbText
 73
2
  0
TEXT
  5
347
330
17
100
AcDbEntity
  8
0
 62
210
100
AcDbText
 10
-5654.068
 20
5295.725
 30
0.0
 40
25.0
  1
Pressure
 72
2
 11
-5654.068
 21
5295.725
 31
0.0
100
AcDbText
 73
2
  0
POLYLINE
  5
348
330
17
100
AcDbEntity
  8
0
 62
210
100
AcDb2dPolyline
 66
1
 10
0.0
 20
0.0
 30
0.0
 70
0
  0
VERTEX
  5
34A
330
17
100
AcDbEntity
  8
0
100
AcDbVertex
100
AcDb2dVertex
 10
-5911.405
 20
8581.998
 30
0.0
 70
0
  0
VERTEX
  5
34B
330
17
100
AcDbEntity
  8
0
100
AcDbVertex
100
AcDb2dVertex
 10
-5861.405
 20
8631.998
 30
0.0
 70
0
  0
VERTEX
  5
34C
330
17
100
AcDbEntity
  8
0
100
AcDbVertex
100
AcDb2dVertex
 10
-5661.405
 20
8631.998
 30
0.0
 70
0
  0
SEQEND
  5
349
330
348
100
AcDbEntity
  8
0
  0
TEXT
  5
34D
330
17
100
AcDbEntity
  8
0
 62
210
100
AcDbText
 10
-5661.405
 20
8686.998
 30
0.0
 40
25.0
  1
60.00
 72
2
 11
-5661.405
 21
8686.998
 31
0.0
100
AcDbText
 73
2
  0
TEXT
  5
34E
330
17
100
AcDbEntity
  8
0
 62
210
100
AcDbText
 10
-5661.405
 20
8649.498
 30
0.0
 40
25.0
  1
ELEV
 72
2
 11
-5661.405
 21
8649.498
 31
0.0
100
AcDbText
 73
2
  0
TEXT
  5
34F
330
17
100
AcDbEntity
  8
0
 62
210
100
AcDbText
 10
-5661.405
 20
8611.998
 30
0.0
 40
25.0
  1
Pressure
 72
2
 11
-5661.405
 21
8611.998
 31
0.0
100
AcDbText
 73
2
  0
POLYLINE
  5
350
330
17
100
AcDbEntity
  8
0
 62
210
100
AcDb2dPolyline
 66
1
 10
0.0
 20
0.0
 30
0.0
 70
0
  0
VERTEX
  5
352
330
17
100
AcDbEntity
  8
0
100
AcDbVertex
100
AcDb2dVertex
 10
-2471.329
 20
4283.443
 30
0.0
 70
0
  0
VERTEX
  5
353
330
17
100
AcDbEntity
  8
0
100
AcDbVertex
100
AcDb2dVertex
 10
-2421.329
 20
4333.443
 30
0.0
 70
0
  0
VERTEX
  5
354
330
17
100
AcDbEntity
  8
0
100
AcDbVertex
100
AcDb2dVertex
 10
-2021.3290000000002
 20
4333.443
 30
0.0
 70
0
  0
SEQEND
  5
351
330
350
100
AcDbEntity
  8
0
  0
TEXT
  5
355
330
17
100
AcDbEntity
  8
0
 62
210
100
AcDbText
 10
-2021.3290000000002
 20
4425.943
 30
0.0
 40
25.0
  1
___T
 72
2
 11
-2021.3290000000002
 21
4425.943
 31
0.0
100
AcDbText
 73
2
  0
TEXT
  5
356
330
17
100
AcDbEntity
  8
0
 62
210
100
AcDbText
 10
-2021.3290000000002
 20
4388.443
 30
0.0
 40
25.0
  1
Hwl:65.00
 72
2
 11
-2021.3290000000002
 21
4388.443
 31
0.0
100
AcDbText
 73
2
  0
TEXT
  5
357
330
17
100
AcDbEntity
  8
0
 62
210
100
AcDbText
 10
-2021.3290000000002
 20
4350.943
 30
0.0
 40
25.0
  1
Mwl:45.00
 72
2
 11
-2021.3290000000002
 21
4350.943
 31
0.0
100
AcDbText
 73
2
  0
TEXT
  5
358
330
17
100
AcDbEntity
  8
0
 62
210
100
AcDbText
 10
-2021.3290000000002
 20
4313.443
 30
0.0
 40
25.0
  1
Elev:45.00
 72
2
 11
-2021.3290000000002
 21
4313.443
 31
0.0
100
AcDbText
 73
2
  0
POLYLINE
  5
359
330
17
100
AcDbEntity
  8
0
 62
210
100
AcDb2dPolyline
 66
1
 10
0.0
 20
0.0
 30
0.0
 70
0
  0
VERTEX
  5
35B
330
17
100
AcDbEntity
  8
0
100
AcDbVertex
100
AcDb2dVertex
 10
4117.032999999999
 20
8331.669
 30
0.0
 70
0
  0
VERTEX
  5
35C
330
17
100
AcDbEntity
  8
0
100
AcDbVertex
100
AcDb2dVertex
 10
4167.032999999999
 20
8381.669
 30
0.0
 70
0
  0
VERTEX
  5
35D
330
17
100
AcDbEntity
  8
0
100
AcDbVertex
100
AcDb2dVertex
 10
4567.032999999999
 20
8381.669
 30
0.0
 70
0
  0
SEQEND
  5
35A
330
359
100
AcDbEntity
  8
0
  0
TEXT
  5
35E
330
17
100
AcDbEntity
  8
0
 62
210
100
AcDbText
 10
4567.032999999999
 20
8474.169
 30
0.0
 40
25.0
  1
___T
 72
2
 11
4567.032999999999
 21
8474.169
 31
0.0
100
AcDbText
 73
2
  0
TEXT
  5
35F
330
17
100
AcDbEntity
  8
0
 62
210
100
AcDbText
 10
4567.032999999999
 20
8436.669
 30
0.0
 40
25.0
  1
Hwl:100.00
 72
2
 11
4567.032999999999
 21
8436.669
 31
0.0
100
AcDbText
 73
2
  0
TEXT
  5
360
330
17
100
AcDbEntity
  8
0
 62
210
100
AcDbText
 10
4567.032999999999
 20
8399.169
 30
0.0
 40
25.0
  1
Mwl:80.00
 72
2
 11
4567.032999999999
 21
8399.169
 31
0.0
100
AcDbText
 73
2
  0
TEXT
  5
361
330
17
100
AcDbEntity
  8
0
 62
210
100
AcDbText
 10
4567.032999999999
 20
8361.669
 30
0.0
 40
25.0
  1
Elev:80.00
 72
2
 11
4567.032999999999
 21
8361.669
 31
0.0
100
AcDbText
 73
2
  0
POLYLINE
  5
362
330
17
100
AcDbEntity
  8
0
 62
210
100
AcDb2dPolyline
 66
1
 10
0.0
 20
0.0
 30
0.0
 70
0
  0
VERTEX
  5
364
330
17
100
AcDbEntity
  8
0
100
AcDbVertex
100
AcDb2dVertex
 10
-1290.254
 20
7348.526
 30
0.0
 70
0
  0
VERTEX
  5
365
330
17
100
AcDbEntity
  8
0
100
AcDbVertex
100
AcDb2dVertex
 10
-1240.254
 20
7398.526
 30
0.0
 70
0
  0
VERTEX
  5
366
330
17
100
AcDbEntity
  8
0
100
AcDbVertex
100
AcDb2dVertex
 10
-840.2539999999999
 20
7398.526
 30
0.0
 70
0
  0
SEQEND
  5
363
330
362
100
AcDbEntity
  8
0
  0
TEXT
  5
367
330
17
100
AcDbEntity
  8
0
 62
210
100
AcDbText
 10
-840.2539999999999
 20
7491.026
 30
0.0
 40
25.0
  1
___T
 72
2
 11
-840.2539999999999
 21
7491.026
 31
0.0
100
AcDbText
 73
2
  0
TEXT
  5
368
330
17
100
AcDbEntity
  8
0
 62
210
100
AcDbText
 10
-840.2539999999999
 20
7453.526
 30
0.0
 40
25.0
  1
Hwl:110.00
 72
2
 11
-840.2539999999999
 21
7453.526
 31
0.0
100
AcDbText
 73
2
  0
TEXT
  5
369
330
17
100
AcDbEntity
  8
0
 62
210
100
AcDbText
 10
-840.2539999999999
 20
7416.026
 30
0.0
 40
25.0
  1
Mwl:90.00
 72
2
 11
-840.2539999999999
 21
7416.026
 31
0.0
100
AcDbText
 73
2
  0
TEXT
  5
36A
330
17
100
AcDbEntity
  8
0
 62
210
100
AcDbText
 10
-840.2539999999999
 20
7378.526
 30
0.0
 40
25.0
  1
Elev:90.00
 72
2
 11
-840.2539999999999
 21
7378.526
 31
0.0
100
AcDbText
 73
2
  0
ENDSEC
  0
SECTION
  2
OBJECTS
  0
DICTIONARY
  5
A
330
0
100
AcDbDictionary
280
0
281
1
  3
ACAD_COLOR
350
B
  3
ACAD_GROUP
350
C
  3
ACAD_LAYOUT
350
D
  3
ACAD_MATERIAL
350
E
  3
ACAD_MLEADERSTYLE
350
F
  3
ACAD_MLINESTYLE
350
10
  3
ACAD_PLOTSETTINGS
350
11
  3
ACAD_PLOTSTYLENAME
350
12
  3
ACAD_SCALELIST
350
14
  3
ACAD_TABLESTYLE
350
15
  3
ACAD_VISUALSTYLE
350
16
  3
EZDXF_META
350
2D
  0
DICTIONARY
  5
B
330
A
100
AcDbDictionary
280
0
281
1
  0
DICTIONARY
  5
C
330
A
100
AcDbDictionary
280
0
281
1
  0
DICTIONARY
  5
D
330
A
100
AcDbDictionary
280
0
281
1
  3
Model
350
1A
  3
Layout1
350
1E
  0
DICTIONARY
  5
E
330
A
100
AcDbDictionary
280
0
281
1
  3
ByBlock
350
1F
  3
ByLayer
350
20
  3
Global
350
21
  0
DICTIONARY
  5
F
330
A
100
AcDbDictionary
280
0
281
1
  3
Standard
350
2C
  0
DICTIONARY
  5
10
330
A
100
AcDbDictionary
280
0
281
1
  3
Standard
350
22
  0
DICTIONARY
  5
11
330
A
100
AcDbDictionary
280
0
281
1
  0
ACDBDICTIONARYWDFLT
  5
12
330
A
100
AcDbDictionary
280
0
281
1
  3
Normal
350
13
100
AcDbDictionaryWithDefault
340
13
  0
ACDBPLACEHOLDER
  5
13
330
12
  0
DICTIONARY
  5
14
330
A
100
AcDbDictionary
280
0
281
1
  0
DICTIONARY
  5
15
330
A
100
AcDbDictionary
280
0
281
1
  0
DICTIONARY
  5
16
330
A
100
AcDbDictionary
280
0
281
1
  0
LAYOUT
  5
1A
330
D
100
AcDbPlotSettings
  1

  4
A3
  6

 40
7.5
 41
20.0
 42
7.5
 43
20.0
 44
420.0
 45
297.0
 46
0.0
 47
0.0
 48
0.0
 49
0.0
140
0.0
141
0.0
142
1.0
143
1.0
 70
1024
 72
1
 73
0
 74
5
  7

 75
16
 76
0
 77
2
 78
300
147
1.0
148
0.0
149
0.0
100
AcDbLayout
  1
Model
 70
1
 71
0
 10
0.0
 20
0.0
 11
420.0
 21
297.0
 12
0.0
 22
0.0
 32
0.0
 14
1e+20
 24
1e+20
 34
1e+20
 15
-1e+20
 25
-1e+20
 35
-1e+20
146
0.0
 13
0.0
 23
0.0
 33
0.0
 16
1.0
 26
0.0
 36
0.0
 17
0.0
 27
1.0
 37
0.0
 76
1
330
17
  0
LAYOUT
  5
1E
330
D
100
AcDbPlotSettings
  1

  4
A3
  6

 40
7.5
 41
20.0
 42
7.5
 43
20.0
 44
420.0
 45
297.0
 46
0.0
 47
0.0
 48
0.0
 49
0.0
140
0.0
141
0.0
142
1.0
143
1.0
 70
0
 72
1
 73
0
 74
5
  7

 75
16
 76
0
 77
2
 78
300
147
1.0
148
0.0
149
0.0
100
AcDbLayout
  1
Layout1
 70
1
 71
1
 10
0.0
 20
0.0
 11
420.0
 21
297.0
 12
0.0
 22
0.0
 32
0.0
 14
1e+20
 24
1e+20
 34
1e+20
 15
-1e+20
 25
-1e+20
 35
-1e+20
146
0.0
 13
0.0
 23
0.0
 33
0.0
 16
1.0
 26
0.0
 36
0.0
 17
0.0
 27
1.0
 37
0.0
 76
1
330
1B
  0
MATERIAL
  5
1F
102
{ACAD_REACTORS
330
E
102
}
330
E
100
AcDbMaterial
  1
ByBlock
  2

 70
0
 40
1.0
 71
1
 41
1.0
 91
-1023410177
 42
1.0
 72
1
  3

 73
1
 74
1
 75
1
 44
0.5
 73
0
 45
1.0
 46
1.0
 77
1
  4

 78
1
 79
1
170
1
 48
1.0
171
1
  6

172
1
173
1
174
1
140
1.0
141
1.0
175
1
  7

176
1
177
1
178
1
143
1.0
179
1
  8

270
1
271
1
272
1
145
1.0
146
1.0
273
1
  9

274
1
275
1
276
1
 42
1.0
 72
1
  3

 73
1
 74
1
 75
1
 94
63
  0
MATERIAL
  5
20
102
{ACAD_REACTORS
330
E
102
}
330
E
100
AcDbMaterial
  1
ByLayer
  2

 70
0
 40
1.0
 71
1
 41
1.0
 91
-1023410177
 42
1.0
 72
1
  3

 73
1
 74
1
 75
1
 44
0.5
 73
0
 45
1.0
 46
1.0
 77
1
  4

 78
1
 79
1
170
1
 48
1.0
171
1
  6

172
1
173
1
174
1
140
1.0
141
1.0
175
1
  7

176
1
177
1
178
1
143
1.0
179
1
  8

270
1
271
1
272
1
145
1.0
146
1.0
273
1
  9

274
1
275
1
276
1
 42
1.0
 72
1
  3

 73
1
 74
1
 75
1
 94
63
  0
MATERIAL
  5
21
102
{ACAD_REACTORS
330
E
102
}
330
E
100
AcDbMaterial
  1
Global
  2

 70
0
 40
1.0
 71
1
 41
1.0
 91
-1023410177
 42
1.0
 72
1
  3

 73
1
 74
1
 75
1
 44
0.5
 73
0
 45
1.0
 46
1.0
 77
1
  4

 78
1
 79
1
170
1
 48
1.0
171
1
  6

172
1
173
1
174
1
140
1.0
141
1.0
175
1
  7

176
1
177
1
178
1
143
1.0
179
1
  8

270
1
271
1
272
1
145
1.0
146
1.0
273
1
  9

274
1
275
1
276
1
 42
1.0
 72
1
  3

 73
1
 74
1
 75
1
 94
63
  0
MLINESTYLE
  5
22
102
{ACAD_REACTORS
330
10
102
}
330
10
100
AcDbMlineStyle
  2
Standard
 70
0
  3

 62
256
 51
90.0
 52
90.0
 71
2
 49
0.5
 62
256
  6
BYLAYER
 49
-0.5
 62
256
  6
BYLAYER
  0
MLEADERSTYLE
  5
2C
102
{ACAD_REACTORS
330
F
102
}
330
F
100
AcDbMLeaderStyle
179
2
170
2
171
1
172
0
 90
2
 40
0.0
 41
0.0
173
1
 91
-1056964608
 92
-2
290
1
 42
2.0
291
1
 43
8.0
  3
Standard
 44
4.0
300

342
29
174
1
175
1
176
0
178
1
 93
-1056964608
 45
4.0
292
0
297
0
 46
4.0
 94
-1056964608
 47
1.0
 49
1.0
140
1.0
294
1
141
0.0
177
0
142
1.0
295
0
296
0
143
3.75
271
0
272
9
273
9
  0
DICTIONARY
  5
2D
330
A
100
AcDbDictionary
281
1
  3
CREATED_BY_EZDXF
350
2E
  3
WRITTEN_BY_EZDXF
350
36D
  0
DICTIONARYVAR
  5
2E
330
2D
100
DictionaryVariables
280
0
  1
1.3.4 @ 2024-11-25T12:15:40.423287+00:00
  0
DICTIONARYVAR
  5
36D
330
2D
100
DictionaryVariables
280
0
  1
1.3.4 @ 2024-11-25T12:15:46.236630+00:00
  0
ENDSEC
  0
EOF
